<svg width="990" height="990" viewBox="0 0 990 990" fill="none" xmlns="http://www.w3.org/2000/svg">
<g style="mix-blend-mode:color-dodge" opacity="0.7">
<path fill-rule="evenodd" clip-rule="evenodd" d="M887.407 495C887.407 278.279 711.72 102.592 494.999 102.592C440.714 102.592 389.126 113.586 342.239 133.423C340.713 134.069 338.948 133.369 338.291 131.848L300.153 43.6034C299.496 42.0825 300.195 40.3161 301.72 39.6681C361.159 14.4087 426.515 0.45896 494.999 0.458963C768.127 0.458975 989.54 221.873 989.54 495C989.54 768.128 768.127 989.541 494.999 989.541C426.515 989.541 361.159 975.592 301.72 950.332C300.195 949.684 299.496 947.918 300.153 946.397L338.291 858.152C338.948 856.631 340.713 855.932 342.239 856.577C389.126 876.414 440.714 887.408 494.999 887.408C711.72 887.408 887.407 711.721 887.407 495ZM109.244 407.725C110.861 408.089 111.875 409.694 111.524 411.313C105.679 438.235 102.591 466.228 102.591 495C102.591 523.772 105.679 551.765 111.524 578.687C111.875 580.306 110.861 581.911 109.244 582.275L15.4588 603.392C13.8424 603.756 12.2362 602.741 11.8821 601.122C4.39384 566.892 0.45774 531.376 0.457742 495C0.457744 458.624 4.39384 423.109 11.8821 388.878C12.2362 387.26 13.8425 386.245 15.4588 386.609L109.244 407.725Z" fill="url(#paint0_linear_205_53174)"/>
</g>
<defs>
<linearGradient id="paint0_linear_205_53174" x1="1209.03" y1="-188.297" x2="-410.022" y2="540.649" gradientUnits="userSpaceOnUse">
<stop offset="0.0948864" stop-color="#350FEC"/>
<stop offset="0.327397" stop-color="#1091EC" stop-opacity="0.794019"/>
<stop offset="0.609373" stop-color="#0FD1EC"/>
<stop offset="0.80513" stop-color="#130FEC"/>
<stop offset="1" stop-color="#B20FEC"/>
</linearGradient>
</defs>
</svg>
