<svg width="40" height="40" viewBox="0 0 40 40" fill="none" xmlns="http://www.w3.org/2000/svg">
<path fill-rule="evenodd" clip-rule="evenodd" d="M40 20C40 17.3824 39.4792 14.7648 38.4776 12.3464C37.476 9.928 35.9932 7.7088 34.142 5.858C32.2912 4.0068 30.072 2.524 27.6536 1.5224C25.2352 0.5208 22.6176 0 20 0C17.3824 0 14.7648 0.5208 12.3464 1.5224C9.928 2.524 7.7088 4.0068 5.858 5.858C4.0068 7.7088 2.524 9.928 1.5224 12.3464C0.5208 14.7648 0 17.3824 0 20C0 22.6176 0.5208 25.2352 1.5224 27.6536C2.524 30.072 4.0068 32.2912 5.858 34.142C7.7088 35.9932 9.928 37.476 12.3464 38.4776C14.7648 39.4792 17.3824 40 20 40C22.6176 40 25.2352 39.4792 27.6536 38.4776C30.072 37.476 32.2912 35.9932 34.142 34.142C35.9932 32.2912 37.476 30.072 38.4776 27.6536C39.4792 25.2352 40 22.6176 40 20Z" fill="#F4B731"/>
<path fill-rule="evenodd" clip-rule="evenodd" d="M10.4754 24.3009V31.1445L10.4718 31.1468V31.1595C13.3638 31.1199 16.2558 31.1199 19.147 31.1595C20.129 31.173 21.1102 31.1104 22.0722 30.9243C23.0882 30.7274 24.0834 30.428 25.0226 29.9967C25.4289 29.8103 25.8189 29.5852 26.2122 29.358L26.2123 29.358L26.2124 29.3579C26.3155 29.2984 26.4187 29.2388 26.5226 29.1797C26.989 28.851 27.4362 28.4958 27.8602 28.1159C29.023 27.0748 29.923 25.7765 30.4854 24.3286C30.5234 24.1662 30.6838 24.0617 30.8482 24.0934H33.2106C33.3986 24.0934 33.461 24.0308 33.461 23.8205V22.3227C33.4738 22.1789 33.4738 22.034 33.461 21.8902C33.461 21.8526 33.4707 21.8152 33.4804 21.7778C33.4998 21.7034 33.5191 21.6293 33.461 21.5552H31.487C31.2486 21.5552 31.2486 21.5306 31.2486 21.3203C31.317 20.5662 31.2894 19.8114 31.2486 19.0558C31.2362 18.8332 31.2866 18.8332 31.4614 18.8332H33.1862C33.387 18.8332 33.453 18.7829 33.4622 18.5853C33.4934 17.9076 33.4934 17.2312 33.4622 16.5552C33.4559 16.4213 33.4527 16.3532 33.417 16.3186C33.3801 16.2827 33.3083 16.2827 33.1622 16.2827H30.9246C30.7502 16.312 30.583 16.1956 30.551 16.0225C30.2946 15.3587 29.9738 14.7195 29.5746 14.1286C29.1786 13.5425 28.7418 12.9825 28.2374 12.4831C27.5794 11.8324 26.8434 11.2625 26.0378 10.7995C24.827 10.1041 23.5034 9.61615 22.125 9.36427C21.4566 9.24189 20.7814 9.1413 20.1002 9.1413H10.7258C10.4754 9.1413 10.4754 9.1912 10.4754 9.38922V16.0601C10.4754 16.2954 10.425 16.2954 10.2378 16.2954H7.55059C7.35059 16.2954 7.35059 16.3314 7.35059 16.468V18.6459C7.35059 18.8439 7.41259 18.8439 7.56299 18.8439H10.2758C10.4754 18.8439 10.4754 18.8803 10.4754 19.0288V21.3556C10.4754 21.5662 10.4122 21.5662 10.2506 21.5662H7.35059V23.9175C7.35059 24.1156 7.41259 24.1156 7.56299 24.1156H10.2758C10.4754 24.1156 10.4754 24.1393 10.4754 24.3009ZM28.337 21.5528H20.7378H13.287C13.1348 21.5528 13.0601 21.5528 13.0233 21.5154C12.9878 21.4793 12.9878 21.4082 12.9878 21.2684V19.0657C12.9878 18.8918 13.0378 18.8304 13.2246 18.8304H28.3498C28.513 18.8304 28.5874 18.8918 28.5874 19.0403C28.6494 19.8066 28.6302 20.5754 28.5874 21.3425C28.5758 21.5528 28.4994 21.5528 28.337 21.5528ZM27.7386 16.2558C27.7602 16.1995 27.7602 16.1385 27.7386 16.0831C27.6118 15.8094 27.4614 15.5484 27.287 15.3033C27.0242 14.8843 26.7142 14.4985 26.3618 14.152C26.1954 13.9425 26.0026 13.7548 25.7866 13.5952C24.7046 12.6835 23.4182 12.0383 22.0362 11.714C21.3402 11.5508 20.6262 11.4851 19.911 11.491C17.6738 11.51 15.4366 11.51 13.199 11.491C13.0114 11.4894 12.9866 11.5651 12.9866 11.7262V16.1195C12.9866 16.3049 12.9866 16.3548 13.2242 16.3548H27.6486L27.6486 16.3548C27.6551 16.3535 27.7734 16.3301 27.799 16.2558H27.7386ZM27.0994 24.1274C27.3118 24.1041 27.5262 24.1041 27.7386 24.1274V24.1286C27.8364 24.1774 27.7549 24.3533 27.7495 24.3649L27.7494 24.3651C26.981 25.8546 25.7622 27.0688 24.2618 27.8411H24.1746C23.8858 28.0114 23.5762 28.1433 23.263 28.2617C22.3918 28.5908 21.4782 28.7904 20.549 28.8561C20.2494 28.9191 19.9434 28.9405 19.6374 28.9179H13.2374C12.9878 28.9179 12.9878 28.8676 12.9878 28.67V24.3746C12.9878 24.1274 13.0506 24.1274 13.2374 24.1274H27.0994Z" fill="white"/>
</svg>
