<svg width="24" height="24" viewBox="0 0 24 24" fill="none" xmlns="http://www.w3.org/2000/svg">
<circle cx="12" cy="12" r="12" fill="#22262F"/>
<path d="M10.2533 19.6058C9.08889 19.6058 7.96762 19.1333 7.18417 18.2994C6.4726 17.5559 6.08447 16.59 6.08447 15.5754V15.0959L10.2461 15.0125V15.5059C10.2461 16.2772 10.5408 17.0069 11.0798 17.5767C11.317 17.8269 11.5902 18.0284 11.8849 18.1882C12.7977 17.6531 13.4158 16.6803 13.4158 15.5685C13.4158 13.8799 11.9999 12.5109 10.2533 12.5109V11.5381C11.9999 11.5381 13.4158 10.1691 13.4158 8.48052C13.4158 7.32699 12.7546 6.31939 11.777 5.79822C11.5183 5.94415 11.2883 6.13177 11.0798 6.34719C10.5408 6.92395 10.2461 7.66054 10.2461 8.42493V8.9044L6.08447 8.98779V8.49442C6.08447 7.47987 6.4726 6.51396 7.18417 5.77042C7.96762 4.9296 9.08889 4.45707 10.2533 4.45707C10.7852 4.45707 11.2883 4.55436 11.7555 4.72808C12.273 4.51266 12.8336 4.39453 13.4086 4.39453C15.7087 4.39453 17.5774 6.20126 17.5774 8.42493C17.5774 9.9537 16.6934 11.2879 15.3924 11.9689C16.6934 12.6499 17.5774 13.9841 17.5774 15.5129C17.5774 17.7365 15.7087 19.5433 13.4086 19.5433C12.8911 19.5433 12.388 19.4529 11.9136 19.2723C11.4033 19.4877 10.8427 19.6058 10.2533 19.6058ZM7.12667 16.0549C7.22011 16.6455 7.49324 17.2015 7.9245 17.6462C8.52107 18.2785 9.3692 18.6399 10.2533 18.6399C10.4114 18.6399 10.5695 18.626 10.7277 18.6051C10.5911 18.494 10.4617 18.3758 10.3395 18.2438C9.75014 17.6184 9.37639 16.8401 9.27576 16.0132L7.12667 16.0549ZM13.0636 18.5565C13.1786 18.5704 13.2936 18.5774 13.4086 18.5774C15.1552 18.5774 16.5712 17.2084 16.5712 15.5198C16.5712 13.8312 15.1552 12.4623 13.4086 12.4623V11.4894C15.1552 11.4894 16.5712 10.1205 16.5712 8.43188C16.5712 6.74328 15.1552 5.37433 13.4086 5.37433C13.2505 5.37433 13.0924 5.38823 12.9342 5.40908C13.8471 6.14567 14.4221 7.25055 14.4221 8.48747C14.4221 10.0162 13.538 11.3504 12.2371 12.0314C13.538 12.7124 14.4221 14.0466 14.4221 15.5754C14.4221 16.7567 13.8974 17.8199 13.0636 18.5565ZM10.2533 5.42993C9.3692 5.42993 8.52107 5.79127 7.9245 6.42363C7.50762 6.86836 7.23449 7.41038 7.13386 7.99409L9.26858 7.9524C9.3692 7.11852 9.74296 6.33329 10.3395 5.70094C10.4258 5.6106 10.512 5.52721 10.5983 5.45077C10.4833 5.43687 10.3683 5.42993 10.2533 5.42993Z" fill="white"/>
<rect x="8" y="11.4902" width="11" height="1.05" fill="white"/>
</svg>
