<svg width="18" height="19" viewBox="0 0 18 19" fill="none" xmlns="http://www.w3.org/2000/svg">
<ellipse cx="9" cy="9.5" rx="9" ry="9.5" fill="url(#paint0_linear_4649_24570)"/>
<path d="M7.68996 15.5211C6.81666 15.5211 5.97572 15.1471 5.38813 14.4869C4.85445 13.8983 4.56335 13.1336 4.56335 12.3304V11.9508L7.68457 11.8848V12.2754C7.68457 12.886 7.90558 13.4637 8.30989 13.9148C8.48778 14.1128 8.69263 14.2724 8.91364 14.3989C9.59826 13.9753 10.0619 13.2051 10.0619 12.3249C10.0619 10.9881 8.9999 9.90435 7.68996 9.90435V9.13418C8.9999 9.13418 10.0619 8.05043 10.0619 6.71362C10.0619 5.80041 9.56592 5.00273 8.83278 4.59014C8.63872 4.70566 8.46622 4.8542 8.30989 5.02474C7.90558 5.48134 7.68457 6.06447 7.68457 6.66961V7.0492L4.56335 7.11521V6.72462C4.56335 5.92144 4.85445 5.15677 5.38813 4.56813C5.97572 3.90248 6.81666 3.52839 7.68996 3.52839C8.08887 3.52839 8.46622 3.60541 8.81661 3.74294C9.20474 3.5724 9.62522 3.47888 10.0565 3.47888C11.7815 3.47888 13.1831 4.90921 13.1831 6.66961C13.1831 7.87989 12.52 8.93613 11.5443 9.47525C12.52 10.0144 13.1831 11.0706 13.1831 12.2809C13.1831 14.0413 11.7815 15.4716 10.0565 15.4716C9.66834 15.4716 9.29099 15.4001 8.93521 15.2571C8.55247 15.4276 8.13199 15.5211 7.68996 15.5211ZM5.34501 12.71C5.41508 13.1776 5.61993 13.6177 5.94337 13.9698C6.3908 14.4704 7.0269 14.7565 7.68996 14.7565C7.80855 14.7565 7.92715 14.7455 8.04574 14.729C7.94332 14.6409 7.84629 14.5474 7.75465 14.4429C7.31261 13.9478 7.03229 13.3316 6.95682 12.677L5.34501 12.71ZM9.79772 14.6904C9.88397 14.7014 9.97022 14.707 10.0565 14.707C11.3664 14.707 12.4284 13.6232 12.4284 12.2864C12.4284 10.9496 11.3664 9.86584 10.0565 9.86584V9.09567C11.3664 9.09567 12.4284 8.01192 12.4284 6.67511C12.4284 5.33831 11.3664 4.25456 10.0565 4.25456C9.93788 4.25456 9.81928 4.26556 9.70069 4.28207C10.3853 4.8652 10.8166 5.7399 10.8166 6.71912C10.8166 7.9294 10.1535 8.98564 9.17779 9.52476C10.1535 10.0639 10.8166 11.1201 10.8166 12.3304C10.8166 13.2656 10.423 14.1073 9.79772 14.6904ZM7.68996 4.29857C7.0269 4.29857 6.3908 4.58463 5.94337 5.08525C5.63071 5.43733 5.42587 5.86643 5.3504 6.32853L6.95143 6.29553C7.0269 5.63538 7.30722 5.01373 7.75465 4.51312C7.81933 4.4416 7.88402 4.37559 7.94871 4.31507C7.86246 4.30407 7.77621 4.29857 7.68996 4.29857Z" fill="white"/>
<defs>
<linearGradient id="paint0_linear_4649_24570" x1="3.16901" y1="16.993" x2="17.3175" y2="5.96926" gradientUnits="userSpaceOnUse">
<stop offset="0.00520833" stop-color="#00FFF0"/>
<stop offset="0.244792" stop-color="#07DCF2" stop-opacity="0.974136"/>
<stop offset="0.510417" stop-color="#0FB3F4" stop-opacity="0.943573"/>
<stop offset="1" stop-color="#3300FF" stop-opacity="0.81"/>
</linearGradient>
</defs>
</svg>
