<svg width="18" height="19" viewBox="0 0 18 19" fill="none" xmlns="http://www.w3.org/2000/svg">
<ellipse cx="9" cy="9.5" rx="9" ry="9.5" fill="url(#paint0_linear_4603_13356)"/>
<path d="M7.69008 15.5211C6.81679 15.5211 5.97584 15.1471 5.38825 14.4869C4.85457 13.8983 4.56348 13.1336 4.56348 12.3304V11.9508L7.68469 11.8848V12.2754C7.68469 12.886 7.90571 13.4637 8.31001 13.9148C8.4879 14.1128 8.69275 14.2724 8.91377 14.3989C9.59838 13.9753 10.062 13.2051 10.062 12.3249C10.062 10.9881 9.00002 9.90435 7.69008 9.90435V9.13418C9.00002 9.13418 10.062 8.05043 10.062 6.71362C10.062 5.80041 9.56604 5.00273 8.83291 4.59014C8.63884 4.70566 8.46634 4.8542 8.31001 5.02474C7.90571 5.48134 7.68469 6.06447 7.68469 6.66961V7.0492L4.56348 7.11521V6.72462C4.56348 5.92144 4.85457 5.15677 5.38825 4.56813C5.97584 3.90248 6.81679 3.52839 7.69008 3.52839C8.08899 3.52839 8.46634 3.60541 8.81673 3.74294C9.20486 3.5724 9.62534 3.47888 10.0566 3.47888C11.7816 3.47888 13.1832 4.90921 13.1832 6.66961C13.1832 7.87989 12.5201 8.93613 11.5444 9.47525C12.5201 10.0144 13.1832 11.0706 13.1832 12.2809C13.1832 14.0413 11.7816 15.4716 10.0566 15.4716C9.66846 15.4716 9.29111 15.4001 8.93533 15.2571C8.55259 15.4276 8.13212 15.5211 7.69008 15.5211ZM5.34513 12.71C5.41521 13.1776 5.62005 13.6177 5.94349 13.9698C6.39092 14.4704 7.02702 14.7565 7.69008 14.7565C7.80867 14.7565 7.92727 14.7455 8.04586 14.729C7.94344 14.6409 7.84641 14.5474 7.75477 14.4429C7.31273 13.9478 7.03241 13.3316 6.95694 12.677L5.34513 12.71ZM9.79784 14.6904C9.88409 14.7014 9.97034 14.707 10.0566 14.707C11.3665 14.707 12.4285 13.6232 12.4285 12.2864C12.4285 10.9496 11.3665 9.86584 10.0566 9.86584V9.09567C11.3665 9.09567 12.4285 8.01192 12.4285 6.67511C12.4285 5.33831 11.3665 4.25456 10.0566 4.25456C9.938 4.25456 9.8194 4.26556 9.70081 4.28207C10.3854 4.8652 10.8167 5.7399 10.8167 6.71912C10.8167 7.9294 10.1536 8.98564 9.17791 9.52477C10.1536 10.0639 10.8167 11.1201 10.8167 12.3304C10.8167 13.2656 10.4232 14.1073 9.79784 14.6904ZM7.69008 4.29857C7.02702 4.29857 6.39092 4.58463 5.94349 5.08525C5.63083 5.43733 5.42599 5.86643 5.35052 6.32853L6.95155 6.29553C7.02702 5.63538 7.30734 5.01373 7.75477 4.51312C7.81946 4.4416 7.88414 4.37559 7.94883 4.31507C7.86258 4.30407 7.77633 4.29857 7.69008 4.29857Z" fill="white"/>
<defs>
<linearGradient id="paint0_linear_4603_13356" x1="3.16901" y1="16.993" x2="17.3175" y2="5.96926" gradientUnits="userSpaceOnUse">
<stop offset="0.00520833" stop-color="#00FFF0"/>
<stop offset="0.244792" stop-color="#07DCF2" stop-opacity="0.974136"/>
<stop offset="0.510417" stop-color="#0FB3F4" stop-opacity="0.943573"/>
<stop offset="1" stop-color="#3300FF" stop-opacity="0.81"/>
</linearGradient>
</defs>
</svg>
