<svg width="23" height="26" viewBox="0 0 23 26" fill="none" xmlns="http://www.w3.org/2000/svg">
<path fill-rule="evenodd" clip-rule="evenodd" d="M3.97366 23.4987C5.27941 24.8885 7.14818 25.6761 9.08883 25.6761C10.0711 25.6761 11.0055 25.4792 11.8561 25.1201C12.6467 25.4213 13.4852 25.5718 14.3477 25.5718C18.1811 25.5718 21.2958 22.5606 21.2958 18.8545C21.2958 16.8661 20.3984 15.0751 18.9737 13.845L22.9859 13.8449V12.1549L18.8501 12.155C20.3463 10.923 21.2958 9.08663 21.2958 7.04127C21.2958 3.33516 18.1811 0.323944 14.3477 0.323944C13.3894 0.323944 12.455 0.520831 11.5925 0.879861C10.8139 0.590321 9.9753 0.428178 9.08883 0.428178C7.14818 0.428178 5.27941 1.21573 3.97366 2.6171C2.78771 3.85633 2.14082 5.46617 2.14082 7.15708V7.97938L9.07685 7.8404V7.04127C9.07685 5.76729 9.568 4.53964 10.4665 3.57837C10.8139 3.21934 11.1972 2.90664 11.6284 2.66343C13.2576 3.53205 14.3597 5.21138 14.3597 7.13392C14.3597 9.94825 11.9998 12.2298 9.08883 12.2298H0.450684V13.8451L9.08883 13.8512C11.9998 13.8512 14.3597 16.1328 14.3597 18.9471C14.3597 20.8002 13.3295 22.4216 11.8081 23.3134C11.317 23.047 10.8618 22.7112 10.4665 22.2942C9.568 21.3445 9.07685 20.1285 9.07685 18.8429V18.0206L2.14082 18.1596V18.9587C2.14082 20.6496 2.78771 22.2595 3.97366 23.4987ZM14.3477 12.1551V12.1488C17.2587 12.1488 19.6186 9.86718 19.6186 7.05285C19.6186 4.23852 17.2587 1.95695 14.3477 1.95695C14.0842 1.95695 13.8207 1.98011 13.5571 2.01486C15.0785 3.24251 16.0368 5.08398 16.0368 7.1455C16.0368 9.13401 15.1394 10.925 13.7146 12.1551L14.3477 12.1551ZM13.5912 13.845C15.0874 15.0771 16.0368 16.9134 16.0368 18.9587C16.0368 20.9276 15.1623 22.6996 13.7727 23.9272C13.9644 23.9504 14.1561 23.962 14.3477 23.962C17.2587 23.962 19.6186 21.6804 19.6186 18.8661C19.6186 16.3501 17.7326 14.26 15.2529 13.845L13.5912 13.845ZM5.20753 22.41C4.48877 21.6688 4.03356 20.7423 3.87783 19.7579L7.45964 19.6884C7.62735 21.0666 8.25028 22.3637 9.23258 23.4061C9.43623 23.6261 9.65186 23.823 9.87946 24.0083C9.61592 24.0431 9.35237 24.0662 9.08883 24.0662C7.61537 24.0662 6.20181 23.464 5.20753 22.41ZM5.20753 3.70577C6.20181 2.65184 7.61537 2.0496 9.08883 2.0496C9.2805 2.0496 9.47217 2.06118 9.66384 2.08435C9.52008 2.21174 9.37633 2.35072 9.23258 2.50128C8.2383 3.55521 7.61537 4.86393 7.44766 6.25372L3.8898 6.32321C4.05752 5.35036 4.51273 4.44699 5.20753 3.70577Z" fill="#F2994A"/>
</svg>
