<svg width="17" height="18" viewBox="0 0 17 18" fill="none" xmlns="http://www.w3.org/2000/svg">
<rect y="0.774414" width="17" height="16.7606" rx="8.38028" fill="#F2994A"/>
<path fill-rule="evenodd" clip-rule="evenodd" d="M5.08857 13.5538C5.64352 14.1362 6.43774 14.4662 7.26252 14.4662C7.68 14.4662 8.07711 14.3837 8.43859 14.2332C8.77461 14.3594 9.131 14.4225 9.49756 14.4225C11.1267 14.4225 12.4505 13.1607 12.4505 11.6078C12.4505 10.7746 12.0691 10.0242 11.4636 9.50877L13.1688 9.50875V8.80061L11.411 8.80065C12.0469 8.28442 12.4505 7.51495 12.4505 6.65792C12.4505 5.105 11.1267 3.84326 9.49756 3.84326C9.09027 3.84326 8.69315 3.92576 8.32658 4.0762C7.99566 3.95488 7.63927 3.88694 7.26252 3.88694C6.43774 3.88694 5.64352 4.21693 5.08857 4.80413C4.58454 5.32338 4.30962 5.99793 4.30962 6.70644V7.051L7.25743 6.99276V6.65792C7.25743 6.1241 7.46617 5.6097 7.84801 5.20691C7.99566 5.05647 8.15857 4.92545 8.34186 4.82354C9.03426 5.1875 9.50265 5.89117 9.50265 6.69674C9.50265 7.87598 8.49968 8.83199 7.26252 8.83199H3.59131V9.5088L7.26252 9.51139C8.49968 9.51139 9.50265 10.4674 9.50265 11.6466C9.50265 12.4231 9.06481 13.1025 8.41823 13.4762C8.20949 13.3646 8.01602 13.2238 7.84801 13.0491C7.46617 12.6512 7.25743 12.1416 7.25743 11.603V11.2584L4.30962 11.3167V11.6515C4.30962 12.36 4.58454 13.0346 5.08857 13.5538ZM9.49756 8.80069V8.79802C10.7347 8.79802 11.7377 7.84201 11.7377 6.66277C11.7377 5.48353 10.7347 4.52751 9.49756 4.52751C9.38556 4.52751 9.27355 4.53722 9.16154 4.55178C9.80813 5.06618 10.2154 5.83778 10.2154 6.70159C10.2154 7.5348 9.83401 8.28526 9.22848 8.8007L9.49756 8.80069ZM9.17604 9.5088C9.8119 10.025 10.2154 10.7945 10.2154 11.6515C10.2154 12.4765 9.84376 13.219 9.25318 13.7334C9.33464 13.7431 9.4161 13.7479 9.49756 13.7479C10.7347 13.7479 11.7377 12.7919 11.7377 11.6127C11.7377 10.5585 10.9361 9.68265 9.88225 9.50879L9.17604 9.5088ZM5.61297 13.0976C5.3075 12.7871 5.11403 12.3988 5.04784 11.9863L6.57012 11.9572C6.64139 12.5347 6.90614 13.0782 7.32362 13.515C7.41017 13.6072 7.50181 13.6897 7.59854 13.7673C7.48653 13.7819 7.37453 13.7916 7.26252 13.7916C6.6363 13.7916 6.03554 13.5393 5.61297 13.0976ZM5.61297 5.26029C6.03554 4.81868 6.6363 4.56634 7.26252 4.56634C7.34398 4.56634 7.42544 4.57119 7.5069 4.5809C7.4458 4.63428 7.38471 4.69251 7.32362 4.7556C6.90104 5.19721 6.6363 5.74558 6.56503 6.32792L5.05294 6.35704C5.12421 5.9494 5.31768 5.57088 5.61297 5.26029Z" fill="#22262F"/>
</svg>
