<svg width="40" height="41" viewBox="0 0 40 41" fill="none" xmlns="http://www.w3.org/2000/svg">
<circle cx="20" cy="20.7744" r="20" fill="#111316"/>
<path d="M20 36.7744C28.8366 36.7744 36 29.611 36 20.7744C36 11.9379 28.8366 4.77441 20 4.77441C11.1634 4.77441 4 11.9379 4 20.7744C4 29.611 11.1634 36.7744 20 36.7744Z" stroke="#F5C09A" stroke-width="2" stroke-miterlimit="10" stroke-linecap="round" stroke-linejoin="round"/>
<path d="M20 25.3982V36.7745" stroke="#F5C09A" stroke-width="2" stroke-miterlimit="10" stroke-linecap="round" stroke-linejoin="round"/>
<path d="M20 4.77441V8.14001" stroke="#F5C09A" stroke-width="2" stroke-miterlimit="10" stroke-linecap="round" stroke-linejoin="round"/>
<path d="M19.9999 25.3982L9.09668 16.7745L19.9999 8.14014L30.9031 16.7745L26.0322 20.624" stroke="#F5C09A" stroke-width="2" stroke-miterlimit="10" stroke-linecap="round" stroke-linejoin="round"/>
<path d="M29.2256 26.1618L30.903 24.8284V16.7747" stroke="#F5C09A" stroke-width="2" stroke-miterlimit="10" stroke-linecap="round" stroke-linejoin="round"/>
<path d="M9.09668 16.7747V24.8284L19.9999 33.4628L24.9246 29.5704" stroke="#F5C09A" stroke-width="2" stroke-miterlimit="10" stroke-linecap="round" stroke-linejoin="round"/>
<path d="M11.0106 26.3442L9.15039 29.57H15.0859" stroke="#F5C09A" stroke-width="2" stroke-miterlimit="10" stroke-linecap="round" stroke-linejoin="round"/>
<path d="M19.9997 29.5699H30.8491L19.9997 10.7742L14.333 20.6021" stroke="#F5C09A" stroke-width="2" stroke-miterlimit="10" stroke-linecap="round" stroke-linejoin="round"/>
</svg>
