<svg width="40" height="41" viewBox="0 0 40 41" fill="none" xmlns="http://www.w3.org/2000/svg">
<path d="M40 20.7744C40 9.72872 31.0457 0.774414 20 0.774414C8.9543 0.774414 0 9.72872 0 20.7744C0 31.8201 8.9543 40.7744 20 40.7744C31.0457 40.7744 40 31.8201 40 20.7744Z" fill="#10151D"/>
<path d="M14.6665 35.0378V13.2045C14.6665 13.0074 14.7995 12.8392 14.9809 12.8072L30.2289 10.1135C30.567 10.0538 30.7968 10.4712 30.5849 10.76L21.765 22.7794C21.643 22.9457 21.6618 23.1849 21.808 23.327L26.6632 28.0444C26.8544 28.2302 26.818 28.5628 26.5919 28.6959L15.2225 35.3908C14.9724 35.5381 14.6665 35.3439 14.6665 35.0378Z" stroke="#C1FFD7" stroke-width="2" stroke-linecap="round" stroke-linejoin="round"/>
<path d="M13.3335 33.7045V11.8712C13.3335 11.6741 13.4665 11.5059 13.6479 11.4739L28.8959 8.78017C29.234 8.72049 29.4638 9.13786 29.2519 9.42668L20.432 21.4461C20.31 21.6124 20.3288 21.8516 20.475 21.9937L25.3302 26.7111C25.5214 26.8969 25.485 27.2294 25.2589 27.3626L13.8895 34.0575C13.6394 34.2048 13.3335 34.0106 13.3335 33.7045Z" stroke="#B098F7" stroke-width="2" stroke-linecap="round" stroke-linejoin="round"/>
<path d="M12 32.3712V10.5379C12 10.3408 12.133 10.1726 12.3144 10.1406L27.5624 7.44686C27.9005 7.38718 28.1303 7.80454 27.9184 8.09336L19.0985 20.1128C18.9765 20.2791 18.9953 20.5183 19.1415 20.6604L23.9967 25.3778C24.1879 25.5636 24.1515 25.8961 23.9254 26.0293L12.556 32.7242C12.3059 32.8715 12 32.6773 12 32.3712Z" stroke="white" stroke-width="2" stroke-linecap="round" stroke-linejoin="round"/>
</svg>
