<svg width="35" height="35" viewBox="0 0 17 17" fill="none" xmlns="http://www.w3.org/2000/svg">
<g clip-path="url(#clip0_4649_59758)">
<path d="M8.5 16.7606C13.1944 16.7606 17 13.0086 17 8.38028C17 3.75198 13.1944 0 8.5 0C3.80558 0 0 3.75198 0 8.38028C0 13.0086 3.80558 16.7606 8.5 16.7606Z" fill="white"/>
<path d="M13.3811 7.0719V4.45307H12.053V3.14365H9.39728V1.83423H6.74103V3.14365H4.08478V4.45307H2.75665V12.3091H4.08478V13.6185H6.74103V14.9274H9.39675V13.6185H12.053V12.3091H13.3811V9.69022H10.7254V10.9996H9.39728V12.3091H6.74103V10.9996H5.41396V5.76248H6.74209V4.45307H9.39781V5.76248H10.7259V7.0719H13.3811Z" fill="url(#paint0_linear_4649_59758)"/>
<path d="M10.3222 4.38708H9.39728V5.76197H10.3222V4.38708Z" fill="#1682FE"/>
<path d="M7.6638 1.83313H6.73889V3.20802H7.6638V1.83313Z" fill="#1682FE"/>
<path d="M5.00865 3.14258H4.08374V4.51747H5.00865V3.14258Z" fill="#60D8A4"/>
<path d="M3.68953 8.38025H2.75507V12.308H3.68953V8.38025Z" fill="#F4BB3B"/>
<path d="M3.68953 4.45312H2.75507V8.38086H3.68953V4.45312Z" fill="#60D8A4"/>
<path d="M11.6493 5.69592H10.7244V7.07081H11.6493V5.69592Z" fill="#1682FE"/>
<path d="M11.6487 9.6897H10.7238V11.0646H11.6487V9.6897Z" fill="#FF5A5A"/>
<path d="M10.3222 10.9991H9.39728V12.374H10.3222V10.9991Z" fill="#FF5A5A"/>
<path d="M7.66435 13.552H6.73944V14.9269H7.66435V13.552Z" fill="#FF5A5A"/>
<path d="M5.0081 12.243H4.08319V13.6179H5.0081V12.243Z" fill="#F4BB3B"/>
<path d="M14.2449 7.07081V4.45197H12.9163V3.14255H10.2605V1.83313H7.60429V3.14255H4.94804V4.45197H3.61938V12.3085H4.94751V13.6179H7.60323V14.9268H10.2595V13.6179H12.9163V12.3085H14.2449V9.68964H11.5887V10.9991H10.2605V12.3085H7.60429V10.9991H6.27617V5.76139H7.60429V4.45197H10.2605V5.76139H11.5887V7.07081H14.2449Z" fill="#3A3A3A"/>
</g>
<defs>
<linearGradient id="paint0_linear_4649_59758" x1="10.1405" y1="3.39254" x2="3.94975" y2="13.2028" gradientUnits="userSpaceOnUse">
<stop stop-color="#1682FE"/>
<stop offset="0.3" stop-color="#60D8A4"/>
<stop offset="0.7" stop-color="#FCA75B"/>
<stop offset="1" stop-color="#FF5A5A"/>
</linearGradient>
<clipPath id="clip0_4649_59758">
<rect width="17" height="16.7606" fill="white"/>
</clipPath>
</defs>
</svg>
