<svg width="54" height="51" viewBox="0 0 18 17" fill="none" xmlns="http://www.w3.org/2000/svg">
<path fill-rule="evenodd" clip-rule="evenodd" d="M4.87302 16.6806L4.34029 16.5126L3.81656 16.2106L3.28632 15.765L2.84978 15.2505L2.45059 14.6386L2.10152 13.9445L1.77252 13.079L1.37912 11.8759L1.0143 10.539L0.895174 10.0493L0.716739 8.99607L0.646985 8.44656L0.569458 7.42169L0.589531 6.40101L0.716739 5.39353L0.930389 4.45563L1.0713 3.86623L1.37912 3.03042L1.75216 2.34827L2.56718 1.25705L3.0326 0.861355L3.54243 0.504625L3.99445 0.280011L4.63948 0.0919123L5.79878 0.0126038L6.78781 0.114391L7.95502 0.34597L9.25422 0.722093L10.6246 1.20501L11.9932 1.78059L12.1238 1.82425L13.4471 2.47404L14.6138 3.18014L15.5194 3.90617L15.7624 4.07823L16.6125 5.03139L16.8018 5.33395L17.2475 6.35088L17.3755 6.74165L17.4623 7.1669L17.4987 7.60223V8.07703L17.464 8.49248L17.2921 9.34191L17.1761 9.71932L17.0331 10.0493L16.8338 10.3825L16.6125 10.6573L16.3822 10.8445L15.7307 11.1949L14.969 11.4496L13.8706 11.7338L12.8098 11.9901L11.5354 12.2907L10.6048 12.5417L10.2533 12.6251L9.04807 13.0032L8.48014 13.2172L8.23301 13.3068L8.16231 13.6473L8.01632 14.0659L7.8863 14.4215L7.74443 14.7256L7.40413 15.3601L6.98838 15.8869L6.53857 16.2775L5.91597 16.5995L5.38881 16.701L4.87302 16.6806Z" fill="url(#paint0_linear_4649_168923)"/>
<path d="M7.70198 4.82941L7.55505 5.02973L7.67979 6.04277L7.79524 5.80685L7.70198 4.82941Z" fill="#FBF100"/>
<path d="M5.79896 3.05176e-05L5.0155 0.0474121L5.40224 0.183781L6.08901 0.136403L5.79896 3.05176e-05Z" fill="#A40000"/>
<path d="M7.56452 3.88055L7.3714 4.04692L7.55497 5.0296L7.7019 4.82927L7.56452 3.88055Z" fill="#FFAE00"/>
<path d="M6.08906 0.136444L5.40228 0.183822L5.78959 0.485324L6.37944 0.43169L6.08906 0.136444Z" fill="#A80000"/>
<path d="M7.38651 2.98734L7.13367 3.1224L7.37138 4.04715L7.5645 3.88078L7.38651 2.98734Z" fill="#FF7300"/>
<path d="M6.37915 0.431641L5.78931 0.485274L6.16638 0.94437L6.6618 0.87838L6.37915 0.431641Z" fill="#B60000"/>
<path d="M7.17252 2.1741L6.84802 2.28145L7.13351 3.12215L7.38635 2.98709L7.17252 2.1741Z" fill="#FF3F00"/>
<path d="M6.66185 0.878448L6.16644 0.944439L6.5227 1.54878L6.92882 1.4647L6.66185 0.878448Z" fill="#D60000"/>
<path d="M6.92864 1.46448L6.52252 1.54856L6.84794 2.28142L7.17243 2.17408L6.92864 1.46448Z" fill="#FF1300"/>
<path d="M9.28007 8.00549L8.60049 8.14642L8.56732 8.90245L9.27284 8.72031L9.28007 8.00549Z" fill="#16FFE1"/>
<path d="M9.28623 7.23068L8.61893 7.325L8.60065 8.14647L9.28022 8.00554L9.28623 7.23068Z" fill="#4DFFAA"/>
<path d="M9.29112 6.41583L8.6219 6.45937L8.61914 7.325L9.28644 7.23068L9.29112 6.41583Z" fill="#80FF77"/>
<path d="M9.29397 5.58262L8.60858 5.57257L8.62158 6.45948L9.2908 6.41595L9.29397 5.58262Z" fill="#B7FF40"/>
<path d="M9.29562 4.75339L8.58008 4.68851L8.60862 5.57274L9.294 5.58278L9.29562 4.75339Z" fill="#EBFF0C"/>
<path d="M9.25431 0.704853L7.95502 0.335876L8.05215 0.457189L9.26355 0.812592L9.25431 0.704853Z" fill="#ED0400"/>
<path d="M9.29561 3.95057L8.53674 3.83118L8.58016 4.68849L9.2957 4.75337L9.29561 3.95057Z" fill="#FFCC00"/>
<path d="M9.26328 0.812862L8.05188 0.457458L8.1486 0.722299L9.27179 1.05545L9.26328 0.812862Z" fill="#F10800"/>
<path d="M9.29397 3.19653L8.47961 3.0246L8.5368 3.83114L9.29567 3.95054L9.29397 3.19653Z" fill="#FF9800"/>
<path d="M9.27193 1.05526L8.14874 0.722107L8.24237 1.12384L9.27939 1.42658L9.27193 1.05526Z" fill="#FF1300"/>
<path d="M9.29071 2.51213L8.41028 2.29117L8.47971 3.02447L9.29407 3.19641L9.29071 2.51213Z" fill="#FF6C00"/>
<path d="M9.27927 1.42649L8.24225 1.12375L8.33018 1.65161L9.28553 1.9166L9.27927 1.42649Z" fill="#FF2900"/>
<path d="M9.28579 1.91691L8.33044 1.65192L8.41023 2.29142L9.29066 2.51238L9.28579 1.91691Z" fill="#FF4700"/>
<path d="M8.60088 8.14673L8.10015 8.36161L8.03845 9.15655L8.5677 8.90276L8.60088 8.14673Z" fill="#13FCE4"/>
<path d="M8.61884 7.32507L8.1319 7.49647L8.09985 8.36142L8.60058 8.14654L8.61884 7.32507Z" fill="#49FFAD"/>
<path d="M8.62171 6.45944L8.09985 6.58399L8.13201 7.49646L8.61895 7.32507L8.62171 6.45944Z" fill="#80FF77"/>
<path d="M8.60863 5.57263L8.10315 5.64802L8.13313 6.58401L8.62163 6.45954L8.60863 5.57263Z" fill="#BAFF3C"/>
<path d="M8.58002 4.6886L8.04242 4.71414L8.10307 5.64821L8.60855 5.57282L8.58002 4.6886Z" fill="#F1FC06"/>
<path d="M7.95479 0.336051L6.78778 0.0976868L6.97981 0.228823L8.05193 0.457367L7.95479 0.336051Z" fill="#D10000"/>
<path d="M8.53659 3.83096L7.95251 3.80734L8.0424 4.71377L8.58 4.68823L8.53659 3.83096Z" fill="#FFC100"/>
<path d="M8.05216 0.457242L6.98004 0.228699L7.17204 0.51144L8.14891 0.722083L8.05216 0.457242Z" fill="#D60000"/>
<path d="M8.47975 3.02454L7.83606 2.95392L7.95288 3.80747L8.53696 3.83109L8.47975 3.02454Z" fill="#FF8900"/>
<path d="M8.14875 0.722057L7.17188 0.511414L7.35852 0.938668L8.24235 1.12376L8.14875 0.722057Z" fill="#E40000"/>
<path d="M8.4102 2.29132L7.69531 2.17728L7.83595 2.95398L8.47964 3.0246L8.4102 2.29132Z" fill="#FF5D00"/>
<path d="M8.24241 1.12409L7.35858 0.938995L7.53466 1.49937L8.33035 1.65196L8.24241 1.12409Z" fill="#FF1300"/>
<path d="M8.33042 1.6517L7.53473 1.49911L7.69532 2.17714L8.4102 2.29118L8.33042 1.6517Z" fill="#FF3400"/>
<path d="M10.1009 7.94031L9.28029 8.00585L9.27307 8.72067L10.1162 8.61235L10.1009 7.94031Z" fill="#1CFFDB"/>
<path d="M10.0963 7.21387L9.28624 7.23066L9.28021 8.00552L10.1008 7.93998L10.0963 7.21387Z" fill="#50FFA7"/>
<path d="M10.1033 6.45266L9.29111 6.41602L9.28644 7.23088L10.0965 7.21409L10.1033 6.45266Z" fill="#80FF77"/>
<path d="M10.1209 5.67582L9.29413 5.58252L9.29095 6.41583L10.1031 6.45247L10.1209 5.67582Z" fill="#B4FF43"/>
<path d="M10.1496 4.90501L9.29589 4.75345L9.29431 5.58284L10.1211 5.67614L10.1496 4.90501Z" fill="#E4FF13"/>
<path d="M10.188 4.16019L9.29578 3.95044L9.29586 4.75323L10.1495 4.90479L10.188 4.16019Z" fill="#FFD700"/>
<path d="M10.6246 1.18928L9.25421 0.705139L9.26348 0.812879L10.5561 1.28065L10.6246 1.18928Z" fill="#FF1E00"/>
<path d="M10.2355 3.46255L9.29413 3.19641L9.29585 3.95044L10.1881 4.16019L10.2355 3.46255Z" fill="#FFA700"/>
<path d="M10.5563 1.28049L9.26367 0.812714L9.27217 1.0553L10.4867 1.49764L10.5563 1.28049Z" fill="#FF1E00"/>
<path d="M10.2903 2.83133L9.29041 2.51227L9.29374 3.19653L10.2351 3.46267L10.2903 2.83133Z" fill="#FF7E00"/>
<path d="M10.4867 1.49769L9.27216 1.05536L9.27964 1.42667L10.418 1.83512L10.4867 1.49769Z" fill="#FF2900"/>
<path d="M10.3517 2.2837L9.28552 1.91675L9.29039 2.51221L10.2903 2.83127L10.3517 2.2837Z" fill="#FF5900"/>
<path d="M10.418 1.83491L9.2796 1.42645L9.28586 1.91655L10.352 2.28351L10.418 1.83491Z" fill="#FF3B00"/>
<path d="M8.12987 13.3177L9.23264 12.9062L9.01277 13.0215L7.89404 13.4416L8.12987 13.3177Z" fill="#00CCFF"/>
<path d="M8.34551 13.1296L9.43392 12.7314L9.23271 12.9063L8.12994 13.3178L8.34551 13.1296Z" fill="#00DCFE"/>
<path d="M8.53496 12.8816L9.61101 12.5011L9.43368 12.7313L8.34528 13.1295L8.53496 12.8816Z" fill="#09F0EE"/>
<path d="M8.69375 12.5804L9.75982 12.2216L9.61102 12.5014L8.53497 12.8819L8.69375 12.5804Z" fill="#1CFFDB"/>
<path d="M8.81773 12.2328L9.87639 11.8991L9.7601 12.2216L8.69403 12.5804L8.81773 12.2328Z" fill="#33FFC4"/>
<path d="M8.90279 11.8476L9.95691 11.5419L9.87629 11.8989L8.81763 12.2326L8.90279 11.8476Z" fill="#4DFFAA"/>
<path d="M8.94697 11.4352L9.9995 11.1596L9.95683 11.5421L8.90271 11.8478L8.94697 11.4352Z" fill="#63FF94"/>
<path d="M8.94903 11.0056L10.003 10.7616L9.99961 11.1596L8.94708 11.4351L8.94903 11.0056Z" fill="#7DFF7A"/>
<path d="M8.90814 10.5704L9.96668 10.3584L10.0028 10.7616L8.94878 11.0056L8.90814 10.5704Z" fill="#97FF60"/>
<path d="M8.82587 10.1408L9.89189 9.96057L9.96673 10.3583L8.90819 10.5703L8.82587 10.1408Z" fill="#B1FF46"/>
<path d="M8.70398 9.72835L9.78024 9.57877L9.89197 9.96051L8.82594 10.1407L8.70398 9.72835Z" fill="#C7FF30"/>
<path d="M8.54523 9.34434L9.63425 9.22333L9.78003 9.5789L8.70378 9.72849L8.54523 9.34434Z" fill="#DEFF19"/>
<path d="M7.11273 8.12429L8.3085 8.09445L8.55429 8.13369L7.37746 8.16672L7.11273 8.12429Z" fill="#FFCC00"/>
<path d="M8.35455 8.99871L9.45855 8.90347L9.63459 9.22333L8.54557 9.34434L8.35455 8.99871Z" fill="#F1FC06"/>
<path d="M7.37744 8.1667L8.55427 8.13367L8.79855 8.2377L7.64091 8.27916L7.37744 8.1667Z" fill="#FFCC00"/>
<path d="M8.13605 8.70071L9.25678 8.62772L9.45843 8.90327L8.35444 8.9985L8.13605 8.70071Z" fill="#FFEA00"/>
<path d="M7.64093 8.2791L8.79857 8.23764L9.03482 8.40378L7.89605 8.45868L7.64093 8.2791Z" fill="#FFD000"/>
<path d="M7.89587 8.45871L9.03465 8.40381L9.25657 8.62765L8.13583 8.70064L7.89587 8.45871Z" fill="#FFDB00"/>
<path d="M8.10331 5.64783L7.79517 5.8066L7.8421 6.78583L8.1333 6.5838L8.10331 5.64783Z" fill="#BEFF39"/>
<path d="M8.04278 4.71378L7.70203 4.82916L7.79528 5.80664L8.10343 5.64786L8.04278 4.71378Z" fill="#F8F500"/>
<path d="M6.78787 0.0976313L5.79877 0L6.08883 0.136373L6.9799 0.228764L6.78787 0.0976313Z" fill="#BB0000"/>
<path d="M7.95276 3.80734L7.56451 3.88048L7.7019 4.82919L8.04265 4.7138L7.95276 3.80734Z" fill="#FFB900"/>
<path d="M6.97975 0.228835L6.08868 0.136444L6.37907 0.43169L7.17178 0.511577L6.97975 0.228835Z" fill="#BF0000"/>
<path d="M7.83571 2.95374L7.38629 2.98701L7.56428 3.88044L7.95253 3.80731L7.83571 2.95374Z" fill="#FF7E00"/>
<path d="M7.1721 0.511649L6.37939 0.431763L6.66203 0.878498L7.35875 0.93892L7.1721 0.511649Z" fill="#CD0000"/>
<path d="M7.69541 2.1773L7.17279 2.17432L7.38662 2.9873L7.83604 2.95403L7.69541 2.1773Z" fill="#FF4E00"/>
<path d="M7.35864 0.938871L6.66193 0.878448L6.92889 1.46471L7.53473 1.49924L7.35864 0.938871Z" fill="#E80000"/>
<path d="M7.53462 1.49928L6.92877 1.46475L7.17257 2.17434L7.69519 2.17732L7.53462 1.49928Z" fill="#FF2200"/>
<path d="M7.44871 13.5525L8.34563 13.1295L8.13007 13.3177L7.21503 13.757L7.44871 13.5525Z" fill="#00D0FF"/>
<path d="M7.65369 13.2829L8.5349 12.8818L8.34522 13.1296L7.4483 13.5525L7.65369 13.2829Z" fill="#00E4F8"/>
<path d="M7.82554 12.9545L8.69394 12.5802L8.53514 12.8816L7.65393 13.2827L7.82554 12.9545Z" fill="#16FFE1"/>
<path d="M7.95892 12.576L8.81771 12.2328L8.69403 12.5804L7.82562 12.9548L7.95892 12.576Z" fill="#2CFFCA"/>
<path d="M8.05017 12.1564L8.90282 11.8478L8.81765 12.2329L7.95886 12.5761L8.05017 12.1564Z" fill="#46FFB1"/>
<path d="M8.09681 11.7064L8.947 11.4351L8.90276 11.8477L8.05011 12.1563L8.09681 11.7064Z" fill="#63FF94"/>
<path d="M8.09722 11.2376L8.94881 11.0053L8.94687 11.4349L8.09668 11.7062L8.09722 11.2376Z" fill="#7DFF7A"/>
<path d="M8.05139 10.7628L8.90813 10.5703L8.94876 11.0055L8.09717 11.2378L8.05139 10.7628Z" fill="#9AFF5D"/>
<path d="M7.96014 10.294L8.82576 10.1408L8.90808 10.5703L8.05134 10.7628L7.96014 10.294Z" fill="#B7FF40"/>
<path d="M7.82593 9.84356L8.70395 9.72833L8.82593 10.1407L7.96031 10.2938L7.82593 9.84356Z" fill="#D1FF26"/>
<path d="M7.65204 9.42395L8.5456 9.34415L8.70416 9.7283L7.82614 9.84353L7.65204 9.42395Z" fill="#E7FF0F"/>
<path d="M7.44257 9.04633L8.35446 8.99847L8.54545 9.3441L7.65188 9.4239L7.44257 9.04633Z" fill="#FBF100"/>
<path d="M7.20361 8.72112L8.13613 8.70084L8.35451 8.99863L7.44262 9.04648L7.20361 8.72112Z" fill="#FFDB00"/>
<path d="M1.28544 11.582L1.43762 12.0709L1.18159 11.1097L1.02393 10.6004L1.28544 11.582Z" fill="#00B4FF"/>
<path d="M0.886919 10.0493L1.02788 10.6184L1.18166 11.1096L1.01398 10.1136L0.776184 9.28146L0.886919 10.0493Z" fill="#16FFE1"/>
<path d="M0.852558 9.58277L1.01407 10.1134L0.939779 9.10703L0.776184 8.55441L0.852558 9.58277Z" fill="#56FFA0"/>
<path d="M0.776062 8.55433L0.939657 9.10694L0.961665 8.11535L0.797841 7.54077L0.776062 8.55433Z" fill="#97FF60"/>
<path d="M0.798157 7.54067L0.961981 8.11525L1.08087 7.16386L0.918732 6.56784L0.798157 7.54067Z" fill="#D4FF23"/>
<path d="M0.918457 6.56786L1.0806 7.16388L1.29452 6.27773L1.13597 5.66135L0.918457 6.56786Z" fill="#FFD700"/>
<path d="M1.13611 5.66143L1.29466 6.27781L1.59922 5.48083L1.44613 4.84576L1.13611 5.66143Z" fill="#FF9400"/>
<path d="M1.44629 4.8458L1.59938 5.48086L1.98768 4.79516L1.84182 4.14362L1.44629 4.8458Z" fill="#FF5900"/>
<path d="M1.84149 4.14376L1.98735 4.7953L2.45003 4.2406L2.31301 3.57526L1.84149 4.14376Z" fill="#FF2500"/>
<path d="M8.41675 8.77151L8.43227 9.33409L8.53002 10.3673L8.51653 9.82775L8.41675 8.77151Z" fill="#C1FF36"/>
<path d="M2.31329 3.57536L2.45031 4.2407L2.97568 3.83344L2.84888 3.1575L2.31329 3.57536Z" fill="#DF0000"/>
<path d="M8.21582 7.72549L8.23541 8.31083L8.43228 9.33403L8.41676 8.77145L8.21582 7.72549Z" fill="#FFEA00"/>
<path d="M2.84888 3.15735L2.97567 3.83329L3.55005 3.58607L3.43462 2.90305L2.84888 3.15735Z" fill="#BB0000"/>
<path d="M7.9184 6.71866L7.94401 7.3258L8.23557 8.31087L8.21597 7.72553L7.9184 6.71866Z" fill="#FFA700"/>
<path d="M3.43439 2.90293L3.54982 3.58595L4.15783 3.50698L4.05458 2.82068L3.43439 2.90293Z" fill="#9F0000"/>
<path d="M7.53174 5.77902L7.56518 6.4064L7.94417 7.32587L7.91855 6.71873L7.53174 5.77902Z" fill="#FF6C00"/>
<path d="M4.05469 2.82053L4.15794 3.50683L4.78297 3.59951L4.69236 2.91381L4.05469 2.82053Z" fill="#920000"/>
<path d="M7.06567 4.93298L7.10855 5.57837L7.56501 6.40623L7.53156 5.77885L7.06567 4.93298Z" fill="#FF3400"/>
<path d="M4.69214 2.91412L4.78275 3.59983L5.40749 3.8625L5.32962 3.1814L4.69214 2.91412Z" fill="#960000"/>
<path d="M6.53339 4.20499L6.58703 4.86565L7.10858 5.57843L7.06571 4.93305L6.53339 4.20499Z" fill="#F10800"/>
<path d="M5.32959 3.18134L5.40746 3.86244L6.01449 4.28837L5.94907 3.61571L5.32959 3.18134Z" fill="#A40000"/>
<path d="M5.9491 3.61575L6.01452 4.28842L6.58681 4.86588L6.53317 4.20521L5.9491 3.61575Z" fill="#C40000"/>
<path d="M0.713043 9.01912L0.852706 9.58286L0.776332 8.55451L0.635315 7.97757L0.713043 9.01912Z" fill="#53FFA4"/>
<path d="M0.635315 7.97749L0.776332 8.55443L0.798113 7.54087L0.656748 6.95065L0.635315 7.97749Z" fill="#97FF60"/>
<path d="M0.656616 6.95066L0.797981 7.54088L0.918553 6.56804L0.777883 5.96478L0.656616 6.95066Z" fill="#D7FF1F"/>
<path d="M0.77771 5.96464L0.918379 6.5679L1.13589 5.66139L0.996971 5.04568L0.77771 5.96464Z" fill="#FFD300"/>
<path d="M0.997009 5.0458L1.13593 5.6615L1.44596 4.8458L1.30982 4.21854L0.997009 5.0458Z" fill="#FF9100"/>
<path d="M1.31 4.21857L1.44614 4.84583L1.84166 4.14365L1.70929 3.5061L1.31 4.21857Z" fill="#FF5200"/>
<path d="M1.70935 3.50613L1.84173 4.14368L2.31325 3.57522L2.18553 2.92896L1.70935 3.50613Z" fill="#FF1E00"/>
<path d="M2.18524 2.92892L2.31296 3.57519L2.84855 3.15729L2.72629 2.50415L2.18524 2.92892Z" fill="#D60000"/>
<path d="M2.72656 2.50411L2.84882 3.15725L3.43453 2.90294L3.31838 2.245L2.72656 2.50411Z" fill="#AD0000"/>
<path d="M7.85168 6.10223L7.91832 6.71857L8.2159 7.72545L8.15274 7.12195L7.85168 6.10223Z" fill="#FFA300"/>
<path d="M3.31818 2.2449L3.43433 2.90284L4.05449 2.82057L3.94492 2.16006L3.31818 2.2449Z" fill="#920000"/>
<path d="M7.46051 5.151L7.53159 5.77918L7.91841 6.71885L7.85177 6.10251L7.46051 5.151Z" fill="#FF6400"/>
<path d="M3.94501 2.1601L4.05458 2.8206L4.69225 2.91391L4.58956 2.25321L3.94501 2.1601Z" fill="#840000"/>
<path d="M6.9892 4.29456L7.06557 4.93314L7.53144 5.77905L7.46036 5.15086L6.9892 4.29456Z" fill="#FF2D00"/>
<path d="M4.58942 2.2533L4.69211 2.914L5.32958 3.18126L5.23385 2.52276L4.58942 2.2533Z" fill="#890000"/>
<path d="M6.45111 3.55774L6.53347 4.20504L7.06579 4.93311L6.98942 4.29452L6.45111 3.55774Z" fill="#E40000"/>
<path d="M5.23389 2.52292L5.32961 3.18142L5.94908 3.61576L5.8602 2.96177L5.23389 2.52292Z" fill="#9B0000"/>
<path d="M5.86029 2.96173L5.94917 3.61571L6.53325 4.20521L6.45089 3.55791L5.86029 2.96173Z" fill="#BB0000"/>
<path d="M0.810855 9.48073L0.886951 10.0493L0.713115 9.01911L0.636414 8.44653L0.810855 9.48073Z" fill="#13FCE4"/>
<path d="M1.18196 11.1096L1.32844 11.5558L1.16598 10.5894L1.01428 10.1136L1.18196 11.1096Z" fill="#19FFDE"/>
<path d="M1.01423 10.1136L1.16593 10.5894L1.0943 9.61328L0.939941 9.10715L1.01423 10.1136Z" fill="#56FFA0"/>
<path d="M0.939758 9.10715L1.09412 9.61329L1.1161 8.65194L0.961765 8.1156L0.939758 9.10715Z" fill="#94FF63"/>
<path d="M0.961853 8.11552L1.11618 8.65185L1.2323 7.72986L1.08074 7.16412L0.961853 8.11552Z" fill="#D1FF26"/>
<path d="M1.08093 7.16389L1.23249 7.72963L1.44088 6.87128L1.29485 6.27774L1.08093 7.16389Z" fill="#FFDB00"/>
<path d="M1.29449 6.27786L1.44052 6.8714L1.73689 6.09982L1.59906 5.48083L1.29449 6.27786Z" fill="#FF9C00"/>
<path d="M1.5993 5.48101L1.73713 6.09999L2.11472 5.43661L1.98761 4.79535L1.5993 5.48101Z" fill="#FF6000"/>
<path d="M1.98761 4.79539L2.11472 5.43665L2.56439 4.90043L2.45026 4.24069L1.98761 4.79539Z" fill="#FF3000"/>
<path d="M8.43229 9.33435L8.37238 9.84661L8.4675 10.848L8.53004 10.3676L8.43229 9.33435Z" fill="#C1FF36"/>
<path d="M2.44995 4.24059L2.56408 4.90034L3.07451 4.50713L2.97533 3.83334L2.44995 4.24059Z" fill="#F10800"/>
<path d="M8.2355 8.31113L8.18115 8.85487L8.37246 9.84658L8.43237 9.33432L8.2355 8.31113Z" fill="#FBF100"/>
<path d="M2.97534 3.83338L3.07452 4.50716L3.63237 4.26909L3.54971 3.58615L2.97534 3.83338Z" fill="#C80000"/>
<path d="M7.94415 7.3259L7.89819 7.89996L8.18136 8.85471L8.23571 8.31097L7.94415 7.3259Z" fill="#FFAE00"/>
<path d="M3.5498 3.58615L3.63246 4.26909L4.22284 4.19403L4.15782 3.50717L3.5498 3.58615Z" fill="#AD0000"/>
<path d="M7.5649 6.40665L7.52997 7.00891L7.89793 7.90014L7.94388 7.32608L7.5649 6.40665Z" fill="#FF7300"/>
<path d="M4.15778 3.50696L4.22279 4.19382L4.82958 4.28498L4.78281 3.59964L4.15778 3.50696Z" fill="#A40000"/>
<path d="M7.10867 5.57861L7.0871 6.20611L7.53018 7.00874L7.56511 6.40648L7.10867 5.57861Z" fill="#FF3F00"/>
<path d="M4.78302 3.59976L4.82979 4.28511L5.4362 4.54082L5.40776 3.86244L4.78302 3.59976Z" fill="#A40000"/>
<path d="M6.58699 4.86581L6.58075 5.51484L7.087 6.2061L7.10857 5.5786L6.58699 4.86581Z" fill="#FF1300"/>
<path d="M5.40778 3.86258L5.43622 4.54096L6.02537 4.95466L6.01477 4.28847L5.40778 3.86258Z" fill="#B60000"/>
<path d="M6.01459 4.28818L6.02518 4.95436L6.58062 5.5147L6.58686 4.86568L6.01459 4.28818Z" fill="#D10000"/>
<path d="M1.43773 12.0708L1.57659 12.4887L1.32818 11.5557L1.1817 11.1096L1.43773 12.0708Z" fill="#00BCFF"/>
<path d="M1.57684 12.4884L1.68473 12.8191L1.44585 11.9217L1.32843 11.5555L1.57684 12.4884Z" fill="#00C4FF"/>
<path d="M1.32848 11.5556L1.44589 11.9218L1.28986 10.9926L1.16602 10.5892L1.32848 11.5556Z" fill="#1CFFDB"/>
<path d="M1.16563 10.5892L1.28947 10.9926L1.22095 10.0544L1.09399 9.61307L1.16563 10.5892Z" fill="#56FFA0"/>
<path d="M1.09399 9.61315L1.22095 10.0545L1.24258 9.13093L1.11597 8.65179L1.09399 9.61315Z" fill="#94FF63"/>
<path d="M1.11609 8.65191L1.2427 9.13105L1.35492 8.2457L1.2322 7.72992L1.11609 8.65191Z" fill="#CEFF29"/>
<path d="M8.17375 13.6473L8.03444 13.9403L7.76678 14.6945L7.89506 14.4322L8.17375 13.6473Z" fill="#00B0FF"/>
<path d="M1.2323 7.72987L1.35502 8.24565L1.55601 7.42182L1.44069 6.87152L1.2323 7.72987Z" fill="#FFE200"/>
<path d="M8.36601 12.7733L8.21887 13.1006L8.03473 13.9402L8.17404 13.6472L8.36601 12.7733Z" fill="#0CF4EB"/>
<path d="M1.44055 6.87144L1.55587 7.42174L1.84142 6.68163L1.73692 6.09985L1.44055 6.87144Z" fill="#FFA300"/>
<path d="M8.46504 11.832L8.31356 12.1964L8.21875 13.1005L8.36589 12.7732L8.46504 11.832Z" fill="#46FFB1"/>
<path d="M1.73724 6.09982L1.84174 6.6816L2.20531 6.0457L2.11483 5.4364L1.73724 6.09982Z" fill="#FF6C00"/>
<path d="M8.4675 10.848L8.31536 11.2513L8.31342 12.1966L8.4649 11.8322L8.4675 10.848Z" fill="#80FF77"/>
<path d="M2.11444 5.43661L2.20492 6.04591L2.63769 5.53237L2.56411 4.90039L2.11444 5.43661Z" fill="#FF3B00"/>
<path d="M8.37258 9.84634L8.22357 10.2894L8.31557 11.2511L8.46771 10.8478L8.37258 9.84634Z" fill="#BEFF39"/>
<path d="M2.56415 4.90018L2.63773 5.53216L3.12876 5.15606L3.07456 4.50696L2.56415 4.90018Z" fill="#FF1300"/>
<path d="M8.18111 8.85471L8.039 9.33728L8.2234 10.2895L8.37241 9.84642L8.18111 8.85471Z" fill="#F8F500"/>
<path d="M3.07477 4.50696L3.12897 5.15606L3.66546 4.92895L3.6326 4.26889L3.07477 4.50696Z" fill="#DA0000"/>
<path d="M7.89798 7.89987L7.76642 8.42049L8.03903 9.3372L8.18114 8.85462L7.89798 7.89987Z" fill="#FFB600"/>
<path d="M3.63245 4.26897L3.66531 4.92904L4.23294 4.85836L4.22279 4.19394L3.63245 4.26897Z" fill="#C40000"/>
<path d="M7.53015 7.00864L7.41254 7.56478L7.76655 8.42052L7.8981 7.89991L7.53015 7.00864Z" fill="#FF7E00"/>
<path d="M4.2229 4.19376L4.23305 4.85818L4.81639 4.94694L4.82969 4.28492L4.2229 4.19376Z" fill="#B60000"/>
<path d="M7.08697 6.20624L6.98633 6.79426L7.41247 7.565L7.53008 7.00886L7.08697 6.20624Z" fill="#FF4A00"/>
<path d="M4.82964 4.28497L4.81635 4.947L5.39928 5.19353L5.43607 4.54071L4.82964 4.28497Z" fill="#BB0000"/>
<path d="M6.58088 5.51501L6.49976 6.13028L6.98649 6.7943L7.08713 6.20628L6.58088 5.51501Z" fill="#FF1E00"/>
<path d="M5.43602 4.54056L5.39923 5.19338L5.96555 5.59135L6.02518 4.95424L5.43602 4.54056Z" fill="#C80000"/>
<path d="M6.0252 4.95459L5.96558 5.59169L6.49953 6.13019L6.58066 5.51493L6.0252 4.95459Z" fill="#E40000"/>
<path d="M6.87215 13.2625L8.06272 12.8567L7.83761 12.6648L6.62927 13.0554L6.87215 13.2625Z" fill="#00C4FF"/>
<path d="M6.62911 13.0556L7.83744 12.665L7.62892 12.4204L6.40381 12.7918L6.62911 13.0556Z" fill="#00D0FF"/>
<path d="M6.4041 12.7917L7.62921 12.4203L7.44252 12.129L6.20203 12.4775L6.4041 12.7917Z" fill="#00E0FB"/>
<path d="M6.20198 12.4776L7.44247 12.1291L7.28236 11.7985L6.0282 12.1211L6.20198 12.4776Z" fill="#0FF8E7"/>
<path d="M5.84763 13.6949L6.87217 13.2626L6.62931 13.0555L5.58289 13.4691L5.84763 13.6949Z" fill="#00B4FF"/>
<path d="M5.5829 13.4693L6.62932 13.0557L6.40402 12.7918L5.33698 13.1816L5.5829 13.4693Z" fill="#00C0FF"/>
<path d="M6.12461 13.8533L7.12652 13.4077L6.87219 13.2627L5.84766 13.695L6.12461 13.8533Z" fill="#00A8FF"/>
<path d="M6.02808 12.1208L7.28224 11.7982L7.15278 11.4364L5.88708 11.7307L6.02808 12.1208Z" fill="#23FFD4"/>
<path d="M5.33702 13.1817L6.40407 12.7919L6.20198 12.4777L5.11603 12.8393L5.33702 13.1817Z" fill="#00D4FF"/>
<path d="M6.40695 13.9401L7.38603 13.487L7.12661 13.4077L6.12469 13.8533L6.40695 13.9401Z" fill="#00A8FF"/>
<path d="M5.11602 12.8393L6.20197 12.4777L6.0282 12.1211L4.9256 12.4507L5.11602 12.8393Z" fill="#06ECF1"/>
<path d="M5.88688 11.7308L7.15258 11.4366L7.05715 11.0527L5.78229 11.3169L5.88688 11.7308Z" fill="#39FFBE"/>
<path d="M6.68723 13.9529L7.64384 13.4984L7.38582 13.4869L6.40674 13.9399L6.68723 13.9529Z" fill="#00A8FF"/>
<path d="M4.92536 12.4504L6.02797 12.1208L5.88696 11.7307L4.77032 12.0253L4.92536 12.4504Z" fill="#1CFFDB"/>
<path d="M5.7826 11.3168L7.05746 11.0526L6.99859 10.6564L5.71722 10.8894L5.7826 11.3168Z" fill="#53FFA4"/>
<path d="M4.77032 12.0256L5.88696 11.731L5.78237 11.317L4.65472 11.5745L4.77032 12.0256Z" fill="#36FFC1"/>
<path d="M5.71709 10.8896L6.99846 10.6565L6.9778 10.2579L5.69275 10.4596L5.71709 10.8896Z" fill="#6DFF8A"/>
<path d="M4.6549 11.5744L5.78255 11.317L5.71717 10.8896L4.58179 11.1086L4.6549 11.5744Z" fill="#50FFA7"/>
<path d="M5.69257 10.4596L6.97762 10.2579L6.99587 9.86713L5.71008 10.038L5.69257 10.4596Z" fill="#87FF70"/>
<path d="M4.58168 11.1084L5.71706 10.8894L5.69271 10.4595L4.55316 10.6396L4.58168 11.1084Z" fill="#6AFF8D"/>
<path d="M5.71014 10.038L6.99593 9.86711L7.0528 9.49426L5.76926 9.63562L5.71014 10.038Z" fill="#A0FF56"/>
<path d="M4.55304 10.6396L5.69259 10.4594L5.71011 10.0378L4.57002 10.1798L4.55304 10.6396Z" fill="#87FF70"/>
<path d="M5.76947 9.63554L7.05301 9.49419L7.14722 9.14899L5.86892 9.26297L5.76947 9.63554Z" fill="#B7FF40"/>
<path d="M4.57025 10.18L5.71034 10.038L5.76947 9.63562L4.63257 9.74112L4.57025 10.18Z" fill="#A4FF53"/>
<path d="M5.8689 9.26312L7.1472 9.14914L7.27648 8.8407L6.00628 8.93015L5.8689 9.26312Z" fill="#D1FF26"/>
<path d="M4.63245 9.74114L5.76934 9.63563L5.86878 9.26306L4.73876 9.33464L4.63245 9.74114Z" fill="#BEFF39"/>
<path d="M6.00635 8.92991L7.27655 8.84046L7.43771 8.577L6.17827 8.64544L6.00635 8.92991Z" fill="#E4FF13"/>
<path d="M4.73877 9.33473L5.86879 9.26315L6.00617 8.93018L4.88659 8.97132L4.73877 9.33473Z" fill="#D7FF1F"/>
<path d="M4.88654 8.97113L6.00612 8.92998L6.17806 8.64551L5.07222 8.66057L4.88654 8.97113Z" fill="#EEFF09"/>
<path d="M5.07227 8.6607L6.1781 8.64564L6.38026 8.41738L5.29112 8.41144L5.07227 8.6607Z" fill="#FFEA00"/>
<path d="M5.29114 8.4115L6.38028 8.41744L6.60747 8.25168L5.5376 8.23044L5.29114 8.4115Z" fill="#FFD700"/>
<path d="M3.81659 16.2106L3.76179 16.1695L3.28766 15.7647L3.31513 15.7824L3.81659 16.2106Z" fill="#0000FF"/>
<path d="M3.31495 15.7826L3.28747 15.7648L2.8457 15.2504L2.84772 15.2385L3.31495 15.7826Z" fill="#0010FF"/>
<path d="M4.34034 16.5126L4.25697 16.4551L3.76196 16.1697L3.81676 16.2108L4.34034 16.5126Z" fill="#0000F1"/>
<path d="M2.84768 15.2386L2.84566 15.2505L2.44701 14.6388L2.42603 14.5916L2.84768 15.2386Z" fill="#0038FF"/>
<path d="M4.87304 16.6806L4.76047 16.6138L4.25659 16.4551L4.33997 16.5126L4.87304 16.6806Z" fill="#0000E8"/>
<path d="M2.42626 14.5913L2.44724 14.6386L2.10154 13.9442L2.06055 13.8568L2.42626 14.5913Z" fill="#0064FF"/>
<path d="M5.40289 16.7102L5.26117 16.6417L4.76068 16.6139L4.87325 16.6807L5.40289 16.7102Z" fill="#0000ED"/>
<path d="M2.06048 13.8569L2.10148 13.9443L1.81743 13.184L1.75989 13.0523L2.06048 13.8569Z" fill="#0098FF"/>
<path d="M5.916 16.5998L5.74584 16.5372L5.26099 16.6417L5.40271 16.7102L5.916 16.5998Z" fill="#0000FF"/>
<path d="M1.75977 13.0525L1.81731 13.1841L1.60228 12.376L1.5321 12.1971L1.75977 13.0525Z" fill="#00D4FF"/>
<path d="M6.40047 16.351L6.20327 16.3019L5.74615 16.5369L5.91632 16.5995L6.40047 16.351Z" fill="#0008FF"/>
<path d="M1.53222 12.1968L1.6024 12.3758L1.46222 11.5396L1.38367 11.3115L1.53222 12.1968Z" fill="#26FFD1"/>
<path d="M6.84316 15.9694L6.62098 15.9412L6.20319 16.3019L6.40039 16.3511L6.84316 15.9694Z" fill="#002CFF"/>
<path d="M1.38369 11.3116L1.46224 11.5398L1.40105 10.6963L1.31866 10.4181L1.38369 11.3116Z" fill="#5AFF9D"/>
<path d="M7.23307 15.463L6.98862 15.4626L6.62097 15.9412L6.84315 15.9694L7.23307 15.463Z" fill="#0054FF"/>
<path d="M1.31866 10.418L1.40105 10.6962L1.42113 9.8666L1.33963 9.53873L1.31866 10.418Z" fill="#90FF66"/>
<path d="M7.55957 14.8433L7.29617 14.8774L6.98846 15.4627L7.23291 15.463L7.55957 14.8433Z" fill="#0088FF"/>
<path d="M1.33954 9.53877L1.42104 9.86664L1.5227 9.07218L1.44687 8.69632L1.33954 9.53877Z" fill="#C7FF30"/>
<path d="M7.81408 14.1249L7.53559 14.1991L7.29633 14.8773L7.55973 14.8432L7.81408 14.1249Z" fill="#00C4FF"/>
<path d="M1.44714 8.69633L1.52297 9.07219L1.70443 8.33377L1.63904 7.91287L1.44714 8.69633Z" fill="#FBF100"/>
<path d="M7.98879 13.3253L7.69955 13.4444L7.53564 14.1989L7.81414 14.1248L7.98879 13.3253Z" fill="#16FFE1"/>
<path d="M1.63904 7.91271L1.70442 8.33361L1.96181 7.67106L1.91144 7.20929L1.63904 7.91271Z" fill="#FFB900"/>
<path d="M8.07801 12.4648L7.78275 12.6326L7.69928 13.4445L7.98852 13.3254L8.07801 12.4648Z" fill="#4DFFAA"/>
<path d="M1.91113 7.20947L1.9615 7.67125L2.28883 7.10279L2.25777 6.60553L1.91113 7.20947Z" fill="#FF8600"/>
<path d="M8.0792 11.5652L7.7829 11.7841L7.78291 12.6326L8.07817 12.4648L8.0792 11.5652Z" fill="#80FF77"/>
<path d="M2.25812 6.60547L2.28918 7.10273L2.67846 6.64443L2.67054 6.11813L2.25812 6.60547Z" fill="#FF5D00"/>
<path d="M7.99082 10.6504L7.69861 10.9216L7.78292 11.7843L8.07922 11.5654L7.99082 10.6504Z" fill="#B7FF40"/>
<path d="M2.67053 6.11824L2.67845 6.64454L3.11981 6.30975L3.13831 5.76181L2.67053 6.11824Z" fill="#FF3800"/>
<path d="M7.81447 9.74435L7.53143 10.0675L7.69855 10.9214L7.99076 10.6502L7.81447 9.74435Z" fill="#EBFF0C"/>
<path d="M3.13819 5.76184L3.11969 6.30978L3.60164 6.10861L3.64913 5.54715L3.13819 5.76184Z" fill="#FF1A00"/>
<path d="M7.55428 8.87234L7.28534 9.24569L7.53139 10.0674L7.81443 9.74428L7.55428 8.87234Z" fill="#FFC800"/>
<path d="M3.64923 5.54702L3.60175 6.10848L4.11144 6.04739L4.1897 5.48105L3.64923 5.54702Z" fill="#F10800"/>
<path d="M7.2167 8.05872L6.96643 8.47897L7.28525 9.24596L7.55419 8.87261L7.2167 8.05872Z" fill="#FF9400"/>
<path d="M4.18935 5.48102L4.11108 6.04736L4.63473 6.12886L4.74469 5.56652L4.18935 5.48102Z" fill="#E80000"/>
<path d="M6.81082 7.32547L6.58331 7.78801L6.96654 8.47891L7.21681 8.05865L6.81082 7.32547Z" fill="#FF6800"/>
<path d="M4.74497 5.56662L4.63501 6.12896L5.15824 6.35147L5.29989 5.80201L4.74497 5.56662Z" fill="#ED0400"/>
<path d="M6.34723 6.69345L6.14594 7.19227L6.58325 7.78769L6.81076 7.32515L6.34723 6.69345Z" fill="#FF4300"/>
<path d="M5.29979 5.80182L5.15814 6.35128L5.66652 6.70905L5.83892 6.18095L5.29979 5.80182Z" fill="#FA0F00"/>
<path d="M5.83908 6.18103L5.66669 6.70913L6.14614 7.19242L6.34744 6.69361L5.83908 6.18103Z" fill="#FF2200"/>
<path d="M1.68444 12.8193L1.75975 13.0523L1.53208 12.1969L1.44556 11.9219L1.68444 12.8193Z" fill="#00CCFF"/>
<path d="M1.44589 11.922L1.53241 12.1971L1.38386 11.3117L1.28986 10.9928L1.44589 11.922Z" fill="#1FFFD7"/>
<path d="M7.01415 15.8766L6.84312 15.9696L6.40033 16.3513L6.54937 16.277L7.01415 15.8766Z" fill="#0018FF"/>
<path d="M1.28959 10.9928L1.38359 11.3116L1.31856 10.4181L1.22107 10.0546L1.28959 10.9928Z" fill="#5AFF9D"/>
<path d="M7.42371 15.3449L7.23306 15.463L6.84314 15.9694L7.01417 15.8764L7.42371 15.3449Z" fill="#0044FF"/>
<path d="M1.22125 10.0543L1.31875 10.4178L1.33971 9.53854L1.24288 9.13077L1.22125 10.0543Z" fill="#94FF63"/>
<path d="M7.76698 14.6945L7.55963 14.8433L7.23297 15.4631L7.42362 15.345L7.76698 14.6945Z" fill="#007CFF"/>
<path d="M1.24292 9.13074L1.33975 9.53852L1.44709 8.69609L1.35514 8.24539L1.24292 9.13074Z" fill="#CAFF2C"/>
<path d="M8.03458 13.9401L7.81392 14.1248L7.55957 14.8431L7.76692 14.6943L8.03458 13.9401Z" fill="#00B8FF"/>
<path d="M1.35504 8.24549L1.44699 8.69618L1.63889 7.91272L1.55603 7.42166L1.35504 8.24549Z" fill="#FFEA00"/>
<path d="M8.2187 13.1005L7.98856 13.3253L7.8139 14.1248L8.03456 13.9401L8.2187 13.1005Z" fill="#0FF8E7"/>
<path d="M1.55597 7.42187L1.63883 7.91292L1.91124 7.2095L1.84152 6.68176L1.55597 7.42187Z" fill="#FFAE00"/>
<path d="M8.31366 12.1964L8.0782 12.4648L7.98871 13.3253L8.21885 13.1005L8.31366 12.1964Z" fill="#49FFAD"/>
<path d="M1.84155 6.68143L1.91127 7.20917L2.25791 6.60523L2.20513 6.04553L1.84155 6.68143Z" fill="#FF7A00"/>
<path d="M8.31572 11.2512L8.07934 11.5652L8.07831 12.4648L8.31377 12.1965L8.31572 11.2512Z" fill="#80FF77"/>
<path d="M2.20532 6.04582L2.2581 6.60552L2.67053 6.11819L2.63811 5.53229L2.20532 6.04582Z" fill="#FF4A00"/>
<path d="M8.22362 10.2896L7.99084 10.6503L8.07924 11.5653L8.31562 11.2513L8.22362 10.2896Z" fill="#BAFF3C"/>
<path d="M2.63776 5.53221L2.67018 6.11811L3.13798 5.76168L3.12881 5.1561L2.63776 5.53221Z" fill="#FF2500"/>
<path d="M8.03912 9.33713L7.81445 9.74418L7.99074 10.65L8.22352 10.2893L8.03912 9.33713Z" fill="#F1FC06"/>
<path d="M3.12878 5.1562L3.13795 5.76178L3.64891 5.5471L3.66531 4.92908L3.12878 5.1562Z" fill="#F10800"/>
<path d="M7.76659 8.42072L7.55438 8.87253L7.81453 9.74448L8.0392 9.33743L7.76659 8.42072Z" fill="#FFC100"/>
<path d="M3.66557 4.92899L3.64917 5.54701L4.18963 5.48104L4.23321 4.85834L3.66557 4.92899Z" fill="#DA0000"/>
<path d="M7.41267 7.56467L7.21698 8.05832L7.55447 8.87223L7.76668 8.42042L7.41267 7.56467Z" fill="#FF8900"/>
<path d="M4.23309 4.85818L4.18951 5.48089L4.74487 5.5664L4.81644 4.94694L4.23309 4.85818Z" fill="#CD0000"/>
<path d="M6.98634 6.79425L6.81079 7.32551L7.21678 8.05865L7.41246 7.565L6.98634 6.79425Z" fill="#FF5900"/>
<path d="M4.81657 4.94699L4.745 5.56645L5.29994 5.80181L5.39953 5.19355L4.81657 4.94699Z" fill="#D10000"/>
<path d="M6.49946 6.13022L6.34711 6.69376L6.81064 7.3255L6.98619 6.79424L6.49946 6.13022Z" fill="#FF3000"/>
<path d="M5.39921 5.19379L5.29962 5.80205L5.83877 6.18119L5.96555 5.59173L5.39921 5.19379Z" fill="#DF0000"/>
<path d="M5.96547 5.5914L5.83868 6.18086L6.34707 6.69344L6.49942 6.1299L5.96547 5.5914Z" fill="#FA0F00"/>
<path d="M4.6398 0.0788569L3.98309 0.280028L4.44643 0.238078L5.01528 0.0475159L4.6398 0.0788569Z" fill="#9F0000"/>
<path d="M5.01539 0.0472412L4.44653 0.237804L4.9237 0.368492L5.40213 0.18361L5.01539 0.0472412Z" fill="#960000"/>
<path d="M7.37137 4.04697L7.35181 4.29873L7.57783 5.30588L7.55494 5.02963L7.37137 4.04697Z" fill="#FFAB00"/>
<path d="M5.40208 0.183655L4.92365 0.368537L5.40146 0.669443L5.78939 0.485157L5.40208 0.183655Z" fill="#960000"/>
<path d="M7.13365 3.12213L7.05896 3.35228L7.3518 4.29864L7.37137 4.04687L7.13365 3.12213Z" fill="#FF6C00"/>
<path d="M5.78954 0.48526L5.40161 0.669546L5.86674 1.13312L6.16664 0.944359L5.78954 0.48526Z" fill="#A80000"/>
<path d="M6.84802 2.28171L6.70697 2.4938L7.05882 3.35255L7.13351 3.1224L6.84802 2.28171Z" fill="#FF3400"/>
<path d="M6.16635 0.944458L5.86646 1.13322L6.30577 1.74696L6.52259 1.54882L6.16635 0.944458Z" fill="#C80000"/>
<path d="M6.52273 1.54889L6.30591 1.74703L6.70709 2.49381L6.84814 2.28172L6.52273 1.54889Z" fill="#F10800"/>
<path d="M0.636158 8.44631L0.712859 9.01889L0.635131 7.97733L0.557983 7.40051L0.636158 8.44631Z" fill="#53FFA4"/>
<path d="M0.557983 7.40068L0.635131 7.9775L0.656565 6.95067L0.579144 6.36945L0.557983 7.40068Z" fill="#97FF60"/>
<path d="M0.579285 6.36943L0.656706 6.95065L0.777977 5.96478L0.700462 5.37912L0.579285 6.36943Z" fill="#D7FF1F"/>
<path d="M0.700378 5.37902L0.777894 5.96468L0.997155 5.04569L0.919738 4.45563L0.700378 5.37902Z" fill="#FFD000"/>
<path d="M0.919678 4.45579L0.997095 5.04585L1.3099 4.21862L1.23278 3.62436L0.919678 4.45579Z" fill="#FF8D00"/>
<path d="M1.23273 3.62416L1.30985 4.21842L1.70915 3.50596L1.6325 2.90778L1.23273 3.62416Z" fill="#FF4E00"/>
<path d="M1.63245 2.90812L1.70909 3.5063L2.18528 2.92908L2.10929 2.32742L1.63245 2.90812Z" fill="#FF1A00"/>
<path d="M2.10956 2.3273L2.18554 2.92896L2.72662 2.50419L2.65146 1.89957L2.10956 2.3273Z" fill="#D10000"/>
<path d="M8.08862 6.52625L8.21587 7.74077L8.41677 8.79306L8.2926 7.58984L8.08862 6.52625Z" fill="#FFE600"/>
<path d="M2.65125 1.89969L2.7264 2.50431L3.31825 2.24519L3.24407 1.63821L2.65125 1.89969Z" fill="#A80000"/>
<path d="M7.78662 5.50262L7.85168 6.1024L8.15273 7.12216L8.08847 6.52618L7.78662 5.50262Z" fill="#FF9F00"/>
<path d="M3.24414 1.63809L3.31833 2.24507L3.94508 2.16024L3.87198 1.55154L3.24414 1.63809Z" fill="#8D0000"/>
<path d="M7.39465 4.54779L7.46066 5.15085L7.85191 6.10236L7.78685 5.50258L7.39465 4.54779Z" fill="#FF6000"/>
<path d="M3.87183 1.5517L3.94493 2.1604L4.58948 2.25351L4.51755 1.64389L3.87183 1.5517Z" fill="#800000"/>
<path d="M6.92212 3.68896L6.98919 4.29475L7.46038 5.15105L7.39438 4.54799L6.92212 3.68896Z" fill="#FF2900"/>
<path d="M4.51788 1.64368L4.58981 2.2533L5.23428 2.52274L5.16358 1.91292L4.51788 1.64368Z" fill="#800000"/>
<path d="M6.38281 2.95013L6.45105 3.55799L6.98938 4.29474L6.92231 3.68896L6.38281 2.95013Z" fill="#DF0000"/>
<path d="M5.16351 1.9129L5.23421 2.52272L5.86051 2.96158L5.79106 2.35236L5.16351 1.9129Z" fill="#920000"/>
<path d="M5.79077 2.35251L5.86023 2.96173L6.45081 3.55795L6.38257 2.95009L5.79077 2.35251Z" fill="#B20000"/>
<path d="M7.95154 6.03302L8.08837 6.52632L8.29235 7.58991L8.14816 7.09598L7.95154 6.03302Z" fill="#FFE600"/>
<path d="M3.54613 0.491633L3.03259 0.850549L3.54241 0.620497L3.98303 0.279694L3.54613 0.491633Z" fill="#B20000"/>
<path d="M3.98311 0.280052L3.54248 0.620855L4.08294 0.563901L4.44645 0.238098L3.98311 0.280052Z" fill="#960000"/>
<path d="M4.4467 0.238037L4.08319 0.56384L4.63957 0.683016L4.92384 0.368729L4.4467 0.238037Z" fill="#890000"/>
<path d="M4.9238 0.368439L4.63953 0.682725L5.19643 0.975875L5.40161 0.669341L4.9238 0.368439Z" fill="#890000"/>
<path d="M6.70728 2.49371L6.71676 2.80044L7.12596 3.66683L7.05913 3.35247L6.70728 2.49371Z" fill="#FF2D00"/>
<path d="M5.40165 0.669647L5.19647 0.976182L5.73832 1.43592L5.86675 1.13323L5.40165 0.669647Z" fill="#9B0000"/>
<path d="M6.3059 1.74689L6.24969 2.04967L6.71659 2.80041L6.7071 2.49368L6.3059 1.74689Z" fill="#E80000"/>
<path d="M5.86647 1.13327L5.73804 1.43596L6.24961 2.04978L6.30582 1.747L5.86647 1.13327Z" fill="#BB0000"/>
<path d="M7.05878 3.35254L7.12561 3.6669L7.46592 4.62429L7.35162 4.29888L7.05878 3.35254Z" fill="#FF6400"/>
<path d="M2.56698 1.24609L2.20898 1.75475L2.72854 1.33794L3.03258 0.850922L2.56698 1.24609Z" fill="#D10000"/>
<path d="M3.03256 0.85086L2.72852 1.33788L3.29708 1.0872L3.54238 0.620789L3.03256 0.85086Z" fill="#A80000"/>
<path d="M3.54241 0.620858L3.29712 1.08727L3.89953 1.0112L4.08289 0.563904L3.54241 0.620858Z" fill="#8D0000"/>
<path d="M4.0829 0.56366L3.89954 1.01095L4.51929 1.11295L4.63928 0.68286L4.0829 0.56366Z" fill="#800000"/>
<path d="M4.63933 0.682861L4.51935 1.11296L5.13931 1.39125L5.19625 0.975991L4.63933 0.682861Z" fill="#840000"/>
<path d="M6.71667 2.80054L6.82955 3.18784L7.28376 4.05107L7.12588 3.66695L6.71667 2.80054Z" fill="#FF2900"/>
<path d="M5.19623 0.976074L5.13928 1.39133L5.74206 1.83882L5.73807 1.43581L5.19623 0.976074Z" fill="#920000"/>
<path d="M6.24982 2.04971L6.31093 2.44335L6.82959 3.18778L6.71671 2.80047L6.24982 2.04971Z" fill="#DF0000"/>
<path d="M5.73798 1.4357L5.74197 1.83871L6.31066 2.44317L6.24954 2.04954L5.73798 1.4357Z" fill="#B20000"/>
<path d="M2.1578 1.7937L1.75214 2.32444L2.20917 1.75454L2.56716 1.24588L2.1578 1.7937Z" fill="#FF1A00"/>
<path d="M1.06905 3.85217L0.919617 4.45563L1.23271 3.62421L1.36892 3.03043L1.06905 3.85217Z" fill="#FF8D00"/>
<path d="M1.36899 3.03052L1.23279 3.6243L1.63256 2.90795L1.75202 2.32449L1.36899 3.03052Z" fill="#FF4E00"/>
<path d="M1.75197 2.32451L1.63251 2.90797L2.10934 2.32727L2.20899 1.75461L1.75197 2.32451Z" fill="#FF1600"/>
<path d="M2.20896 1.75449L2.10931 2.32715L2.65121 1.89942L2.72852 1.33768L2.20896 1.75449Z" fill="#D10000"/>
<path d="M2.72862 1.33769L2.65131 1.89942L3.2441 1.63794L3.29717 1.08701L2.72862 1.33769Z" fill="#A40000"/>
<path d="M3.29733 1.08727L3.24426 1.63821L3.87212 1.5517L3.89973 1.0112L3.29733 1.08727Z" fill="#890000"/>
<path d="M7.28381 4.05096L7.39465 4.54794L7.78685 5.50273L7.66121 5.0084L7.28381 4.05096Z" fill="#FF6000"/>
<path d="M3.89962 1.01086L3.87201 1.55136L4.51775 1.64353L4.5194 1.11287L3.89962 1.01086Z" fill="#800000"/>
<path d="M6.82965 3.18774L6.92244 3.68888L7.39469 4.54795L7.28386 4.05097L6.82965 3.18774Z" fill="#FF2900"/>
<path d="M4.51948 1.11285L4.51782 1.64351L5.16352 1.91277L5.13946 1.39116L4.51948 1.11285Z" fill="#800000"/>
<path d="M6.31079 2.4433L6.38273 2.95L6.9222 3.68882L6.82941 3.18768L6.31079 2.4433Z" fill="#DF0000"/>
<path d="M5.1394 1.39127L5.16346 1.91288L5.79104 2.35234L5.74222 1.83876L5.1394 1.39127Z" fill="#920000"/>
<path d="M5.74207 1.8389L5.79088 2.35247L6.38269 2.95006L6.31076 2.44336L5.74207 1.8389Z" fill="#B20000"/>
<path d="M11.0063 7.94749L10.1007 7.94006L10.1161 8.61209L11.0405 8.5759L11.0063 7.94749Z" fill="#23FFD4"/>
<path d="M10.9937 7.27147L10.0966 7.21417L10.1011 7.94028L11.0066 7.9477L10.9937 7.27147Z" fill="#53FFA4"/>
<path d="M11.0022 6.56466L10.1032 6.45255L10.0965 7.21397L10.9935 7.27127L11.0022 6.56466Z" fill="#80FF77"/>
<path d="M11.0325 5.84623L10.1211 5.67584L10.1033 6.45251L11.0023 6.56463L11.0325 5.84623Z" fill="#ADFF49"/>
<path d="M11.0836 5.1354L10.1494 4.90494L10.121 5.67604L11.0324 5.84643L11.0836 5.1354Z" fill="#DBFF1C"/>
<path d="M11.1545 4.45098L10.1878 4.16037L10.1494 4.90496L11.0835 5.13542L11.1545 4.45098Z" fill="#FFE200"/>
<path d="M11.9932 1.7685L10.6246 1.18912L10.5562 1.2805L11.8593 1.84172L11.9932 1.7685Z" fill="#FF3800"/>
<path d="M11.2432 3.81175L10.2353 3.46268L10.1878 4.1603L11.1544 4.45091L11.2432 3.81175Z" fill="#FFB600"/>
<path d="M11.859 1.84171L10.5559 1.28049L10.4863 1.49763L11.7238 2.03145L11.859 1.84171Z" fill="#FF3800"/>
<path d="M11.3476 3.23534L10.2905 2.83121L10.2353 3.46255L11.2433 3.81162L11.3476 3.23534Z" fill="#FF9100"/>
<path d="M11.724 2.03132L10.4865 1.4975L10.4178 1.8349L11.5913 2.33276L11.724 2.03132Z" fill="#FF4300"/>
<path d="M11.4646 2.73772L10.3518 2.28351L10.2904 2.83109L11.3475 3.23522L11.4646 2.73772Z" fill="#FF6F00"/>
<path d="M11.5914 2.33291L10.4179 1.83505L10.352 2.28367L11.4648 2.73788L11.5914 2.33291Z" fill="#FF5500"/>
<path d="M11.9273 8.0223L11.0063 7.94775L11.0404 8.57617L11.9762 8.60708L11.9273 8.0223Z" fill="#2CFFCA"/>
<path d="M11.9077 7.39586L10.9933 7.27139L11.0063 7.94762L11.9274 8.02216L11.9077 7.39586Z" fill="#56FFA0"/>
<path d="M11.9179 6.74426L11.0019 6.56488L10.9933 7.27146L11.9076 7.39593L11.9179 6.74426Z" fill="#80FF77"/>
<path d="M11.9585 6.08422L11.0326 5.84644L11.0023 6.56482L11.9183 6.7442L11.9585 6.08422Z" fill="#AAFF4D"/>
<path d="M12.0276 5.43341L11.0837 5.13538L11.0325 5.8464L11.9584 6.08418L12.0276 5.43341Z" fill="#D4FF23"/>
<path d="M12.1241 4.80939L11.1546 4.45096L11.0837 5.13542L12.0276 5.43346L12.1241 4.80939Z" fill="#FBF100"/>
<path d="M13.4605 2.4737L12.1225 1.81328L11.9933 1.76849L13.2809 2.41964L13.4605 2.4737Z" fill="#FF5500"/>
<path d="M12.2452 4.22895L11.2431 3.81174L11.1543 4.45092L12.1238 4.80935L12.2452 4.22895Z" fill="#FFC400"/>
<path d="M13.2808 2.4197L11.9933 1.76855L11.8594 1.84179L13.0949 2.47401L13.2808 2.4197Z" fill="#FF4E00"/>
<path d="M12.3885 3.70814L11.3476 3.23544L11.2432 3.81174L12.2454 4.22896L12.3885 3.70814Z" fill="#FFA300"/>
<path d="M13.0947 2.47411L11.8591 1.84189L11.7239 2.03164L12.9075 2.63574L13.0947 2.47411Z" fill="#FF5200"/>
<path d="M12.5497 3.26133L11.4647 2.73807L11.3477 3.23556L12.3886 3.70826L12.5497 3.26133Z" fill="#FF8200"/>
<path d="M12.9077 2.63572L11.7242 2.03162L11.5914 2.33303L12.7243 2.90049L12.9077 2.63572Z" fill="#FF5900"/>
<path d="M12.724 2.90053L11.5911 2.33307L11.4645 2.73808L12.5494 3.26134L12.724 2.90053Z" fill="#FF6C00"/>
<path d="M12.7866 8.1551L11.9272 8.02209L11.9761 8.60687L12.8463 8.69711L12.7866 8.1551Z" fill="#33FFC4"/>
<path d="M12.762 7.57787L11.9077 7.396L11.9273 8.0223L12.7866 8.1553L12.762 7.57787Z" fill="#5AFF9D"/>
<path d="M12.7735 6.97987L11.918 6.74429L11.9077 7.396L12.7621 7.57787L12.7735 6.97987Z" fill="#80FF77"/>
<path d="M12.821 6.37665L11.9583 6.08401L11.9182 6.744L12.7736 6.97957L12.821 6.37665Z" fill="#A7FF50"/>
<path d="M12.9032 5.78502L12.0275 5.43353L11.9583 6.08431L12.8209 6.37695L12.9032 5.78502Z" fill="#CEFF29"/>
<path d="M13.0181 5.21981L12.1238 4.80936L12.0273 5.43342L12.903 5.78491L13.0181 5.21981Z" fill="#F1FC06"/>
<path d="M13.1634 4.69658L12.2453 4.22873L12.1239 4.80911L13.0182 5.21956L13.1634 4.69658Z" fill="#FFD700"/>
<path d="M14.6245 3.18014L13.4605 2.47355L13.2808 2.41946L14.4076 3.11669L14.6245 3.18014Z" fill="#FF6F00"/>
<path d="M13.3349 4.23019L12.3886 3.70813L12.2454 4.22895L13.1635 4.6968L13.3349 4.23019Z" fill="#FFB600"/>
<path d="M14.4073 3.11693L13.2805 2.41971L13.0945 2.47404L14.1831 3.15254L14.4073 3.11693Z" fill="#FF6800"/>
<path d="M13.528 3.83255L12.5496 3.26105L12.3886 3.70798L13.3349 4.23004L13.528 3.83255Z" fill="#FF9800"/>
<path d="M14.1834 3.15253L13.0948 2.47403L12.9077 2.63566L13.9581 3.28644L14.1834 3.15253Z" fill="#FF6C00"/>
<path d="M13.7374 3.51536L12.7241 2.90054L12.5495 3.26132L13.5278 3.83282L13.7374 3.51536Z" fill="#FF8200"/>
<path d="M13.958 3.28655L12.9076 2.63577L12.7242 2.90054L13.7376 3.51536L13.958 3.28655Z" fill="#FF7300"/>
<path d="M13.5067 8.33589L12.7869 8.15506L12.8466 8.69708L13.5736 8.83693L13.5067 8.33589Z" fill="#39FFBE"/>
<path d="M13.4785 7.80509L12.762 7.57758L12.7866 8.155L13.5065 8.33582L13.4785 7.80509Z" fill="#5AFF9D"/>
<path d="M13.4903 7.25825L12.7734 6.97955L12.762 7.57753L13.4784 7.80505L13.4903 7.25825Z" fill="#80FF77"/>
<path d="M13.5423 6.70986L12.8208 6.37686L12.7735 6.9798L13.4905 7.2585L13.5423 6.70986Z" fill="#A4FF53"/>
<path d="M13.6327 6.17383L12.903 5.78491L12.8208 6.37685L13.5422 6.70985L13.6327 6.17383Z" fill="#C7FF30"/>
<path d="M13.76 5.66462L13.0184 5.21973L12.9032 5.78483L13.6329 6.17374L13.76 5.66462Z" fill="#E7FF0F"/>
<path d="M13.9203 5.19618L13.1635 4.69681L13.0183 5.21979L13.7599 5.66468L13.9203 5.19618Z" fill="#FFE600"/>
<path d="M14.1098 4.78097L13.3347 4.23019L13.1633 4.69681L13.9202 5.19619L14.1098 4.78097Z" fill="#FFC400"/>
<path d="M15.5419 3.90616L14.6245 3.18038L14.4077 3.11691L15.3004 3.83378L15.5419 3.90616Z" fill="#FF8600"/>
<path d="M14.3238 4.43018L13.528 3.83252L13.3349 4.23001L14.11 4.78079L14.3238 4.43018Z" fill="#FFAB00"/>
<path d="M15.3 3.83375L14.4073 3.11688L14.1832 3.15248L15.0508 3.85158L15.3 3.83375Z" fill="#FF8200"/>
<path d="M14.5562 4.15375L13.7377 3.51505L13.5281 3.83252L14.3239 4.43018L14.5562 4.15375Z" fill="#FF9800"/>
<path d="M15.0508 3.85136L14.1832 3.15225L13.9579 3.28619L14.8006 3.95902L15.0508 3.85136Z" fill="#FF8200"/>
<path d="M14.8005 3.95935L13.9578 3.28653L13.7373 3.51532L14.5558 4.15402L14.8005 3.95935Z" fill="#FF8900"/>
<path d="M14.0161 8.5527L13.5065 8.33575L13.5735 8.83681L14.0872 9.01558L14.0161 8.5527Z" fill="#3CFFBA"/>
<path d="M13.9862 8.0655L13.4788 7.80521L13.5068 8.33594L14.0164 8.55289L13.9862 8.0655Z" fill="#5DFF9A"/>
<path d="M13.9981 7.56627L13.4907 7.25858L13.4788 7.80539L13.9862 8.06569L13.9981 7.56627Z" fill="#80FF77"/>
<path d="M14.0517 7.06747L13.5423 6.70959L13.4905 7.25821L13.9979 7.56591L14.0517 7.06747Z" fill="#A0FF56"/>
<path d="M14.1462 6.58304L13.6328 6.17358L13.5422 6.7096L14.0517 7.06748L14.1462 6.58304Z" fill="#C1FF36"/>
<path d="M14.2792 6.12582L13.7598 5.66476L13.6328 6.17386L14.1462 6.58332L14.2792 6.12582Z" fill="#DEFF19"/>
<path d="M14.4474 5.70741L13.9202 5.19623L13.7598 5.66472L14.2792 6.12578L14.4474 5.70741Z" fill="#FBF100"/>
<path d="M14.6462 5.3394L14.1098 4.78094L13.9202 5.19616L14.4473 5.70734L14.6462 5.3394Z" fill="#FFD700"/>
<path d="M16.3933 4.78498L15.7688 4.06636L15.5415 3.90601L16.1532 4.62491L16.3933 4.78498Z" fill="#FFA700"/>
<path d="M14.8709 5.03178L14.3237 4.43024L14.1099 4.78084L14.6463 5.3393L14.8709 5.03178Z" fill="#FFC100"/>
<path d="M16.1536 4.62497L15.5419 3.90607L15.3004 3.83371L15.8988 4.54457L16.1536 4.62497Z" fill="#FF9C00"/>
<path d="M15.1151 4.79297L14.5562 4.15375L14.3239 4.43016L14.871 5.0317L15.1151 4.79297Z" fill="#FFAE00"/>
<path d="M15.8987 4.54457L15.3003 3.83371L15.0511 3.85152L15.636 4.54615L15.8987 4.54457Z" fill="#FF9800"/>
<path d="M15.3725 4.62977L14.8009 3.95923L14.5563 4.1539L15.1152 4.79312L15.3725 4.62977Z" fill="#FF9F00"/>
<path d="M15.636 4.54619L15.0511 3.85156L14.8008 3.95923L15.3724 4.62977L15.636 4.54619Z" fill="#FF9800"/>
<path d="M14.2592 8.79431L14.0164 8.55304L14.0875 9.0159L14.3319 9.22284L14.2592 8.79431Z" fill="#43FFB4"/>
<path d="M14.2277 8.34551L13.986 8.06537L14.0161 8.55274L14.2589 8.79401L14.2277 8.34551Z" fill="#60FF97"/>
<path d="M14.2392 7.88869L13.998 7.56613L13.9861 8.06555L14.2279 8.34569L14.2392 7.88869Z" fill="#7DFF7A"/>
<path d="M14.2927 7.43507L14.0516 7.06769L13.9978 7.56614L14.239 7.8887L14.2927 7.43507Z" fill="#9DFF5A"/>
<path d="M14.3881 6.99667L14.1465 6.58325L14.0519 7.06767L14.2931 7.43505L14.3881 6.99667Z" fill="#BAFF3C"/>
<path d="M14.5219 6.58505L14.2793 6.12567L14.1462 6.58321L14.3878 6.99662L14.5219 6.58505Z" fill="#D4FF23"/>
<path d="M14.6916 6.21144L14.4475 5.70746L14.2794 6.12583L14.522 6.58521L14.6916 6.21144Z" fill="#EEFF09"/>
<path d="M17.0832 5.98983L16.8049 5.32417L16.6125 5.02026L16.887 5.70069L17.0832 5.98983Z" fill="#FFDE00"/>
<path d="M14.8926 5.88541L14.6464 5.33936L14.4475 5.70731L14.6917 6.21128L14.8926 5.88541Z" fill="#FFE600"/>
<path d="M16.8872 5.70061L16.6127 5.02019L16.3936 4.78494L16.664 5.47309L16.8872 5.70061Z" fill="#FFCC00"/>
<path d="M15.1196 5.6162L14.871 5.03186L14.6465 5.33939L14.8926 5.88545L15.1196 5.6162Z" fill="#FFD000"/>
<path d="M16.6638 5.473L16.3934 4.78486L16.1533 4.62479L16.4196 5.31329L16.6638 5.473Z" fill="#FFB900"/>
<path d="M15.3668 5.41101L15.1152 4.79315L14.8711 5.03186L15.1197 5.6162L15.3668 5.41101Z" fill="#FFC100"/>
<path d="M16.4195 5.3134L16.1532 4.6249L15.8984 4.54449L16.1607 5.22592L16.4195 5.3134Z" fill="#FFB200"/>
<path d="M15.627 5.27539L15.3722 4.62973L15.1149 4.7931L15.3665 5.41096L15.627 5.27539Z" fill="#FFB200"/>
<path d="M16.161 5.2258L15.8987 4.54437L15.636 4.54594L15.8944 5.21297L16.161 5.2258Z" fill="#FFAB00"/>
<path d="M15.8942 5.21298L15.6358 4.54596L15.3723 4.62955L15.6271 5.27521L15.8942 5.21298Z" fill="#FFAE00"/>
<path d="M14.4544 7.02624L14.5221 6.58487L14.3881 6.99644L14.323 7.3985L14.4544 7.02624Z" fill="#CEFF29"/>
<path d="M17.3008 9.34834L17.3973 8.93896L17.4767 8.49631L17.3783 8.94348L17.3008 9.34834Z" fill="#50FFA7"/>
<path d="M17.3782 8.94352L17.4766 8.49635L17.5148 8.04141L17.4147 8.52523L17.3782 8.94352Z" fill="#6AFF8D"/>
<path d="M17.415 8.52511L17.5152 8.04129L17.5109 7.58575L17.4095 8.10417L17.415 8.52511Z" fill="#87FF70"/>
<path d="M17.4093 8.10428L17.5107 7.58587L17.4638 7.14157L17.3616 7.69159L17.4093 8.10428Z" fill="#A0FF56"/>
<path d="M17.3618 7.69146L17.4639 7.14145L17.3755 6.72003L17.2731 7.29793L17.3618 7.69146Z" fill="#BEFF39"/>
<path d="M17.273 7.29786L17.3754 6.71996L17.2475 6.33264L17.1454 6.93386L17.273 7.29786Z" fill="#D4FF23"/>
<path d="M14.6208 6.69104L14.6917 6.21143L14.522 6.58519L14.4543 7.02656L14.6208 6.69104Z" fill="#E4FF13"/>
<path d="M17.1454 6.93386L17.2475 6.33264L17.0833 5.98978L16.9821 6.60916L17.1454 6.93386Z" fill="#EBFF0C"/>
<path d="M14.818 6.40102L14.8923 5.88541L14.6914 6.21131L14.6205 6.69093L14.818 6.40102Z" fill="#F8F500"/>
<path d="M16.9821 6.60945L17.0834 5.99007L16.8872 5.70093L16.7874 6.33279L16.9821 6.60945Z" fill="#FEED00"/>
<path d="M15.0414 6.16462L15.1194 5.61612L14.8924 5.88534L14.8181 6.40096L15.0414 6.16462Z" fill="#FFDE00"/>
<path d="M16.7873 6.33264L16.8872 5.70078L16.664 5.47324L16.5662 6.11154L16.7873 6.33264Z" fill="#FFDB00"/>
<path d="M15.2849 5.98821L15.3666 5.41095L15.1196 5.61615L15.0416 6.16465L15.2849 5.98821Z" fill="#FFD000"/>
<path d="M16.566 6.11143L16.6639 5.47313L16.4196 5.31342L16.3243 5.9518L16.566 6.11143Z" fill="#FFCC00"/>
<path d="M15.5419 5.8766L15.6273 5.27542L15.3668 5.41099L15.285 5.98825L15.5419 5.8766Z" fill="#FFC400"/>
<path d="M16.3242 5.95182L16.4196 5.31344L16.1607 5.22595L16.0683 5.85809L16.3242 5.95182Z" fill="#FFC400"/>
<path d="M15.8053 5.83301L15.8944 5.21335L15.6273 5.27557L15.5418 5.87675L15.8053 5.83301Z" fill="#FFC100"/>
<path d="M16.0685 5.85821L16.1609 5.22607L15.8943 5.21326L15.8052 5.83292L16.0685 5.85821Z" fill="#FFBD00"/>
<path d="M15.9711 11.0868L16.4081 10.8378L16.6396 10.6382L16.1953 10.912L15.9711 11.0868Z" fill="#00D4FF"/>
<path d="M16.1953 10.912L16.6396 10.6382L16.8497 10.3825L16.3986 10.6837L16.1953 10.912Z" fill="#00E4F8"/>
<path d="M16.3987 10.6836L16.8498 10.3824L17.0331 10.0769L16.5758 10.4075L16.3987 10.6836Z" fill="#0FF8E7"/>
<path d="M16.5758 10.4076L17.0332 10.077L17.1849 9.72943L16.7221 10.0905L16.5758 10.4076Z" fill="#26FFD1"/>
<path d="M16.7219 10.0904L17.1847 9.7293L17.3008 9.34827L16.8336 9.74033L16.7219 10.0904Z" fill="#3CFFBA"/>
<path d="M16.8336 9.74033L17.3009 9.34827L17.3783 8.94342L16.9076 9.36615L16.8336 9.74033Z" fill="#53FFA4"/>
<path d="M16.9077 9.36633L17.3784 8.94359L17.4149 8.5253L16.9418 8.97767L16.9077 9.36633Z" fill="#6DFF8A"/>
<path d="M16.9416 8.97751L17.4147 8.52513L17.4092 8.10416L16.9349 8.58437L16.9416 8.97751Z" fill="#87FF70"/>
<path d="M16.935 8.58432L17.4093 8.1041L17.3616 7.69141L16.8875 8.1969L16.935 8.58432Z" fill="#A0FF56"/>
<path d="M16.8876 8.19708L17.3617 7.69158L17.273 7.29803L16.8002 7.82565L16.8876 8.19708Z" fill="#B7FF40"/>
<path d="M16.8001 7.82547L17.2728 7.29785L17.1452 6.93387L16.6751 7.47989L16.8001 7.82547Z" fill="#CEFF29"/>
<path d="M16.6753 7.47987L17.1453 6.93385L16.982 6.60916L16.5158 7.16926L16.6753 7.47987Z" fill="#E4FF13"/>
<path d="M14.6339 6.66185L15.0416 6.16455L14.8183 6.40091L14.4183 6.87117L14.6339 6.66185Z" fill="#FEED00"/>
<path d="M16.5157 7.16946L16.9819 6.60936L16.7871 6.3327L16.3259 6.9022L16.5157 7.16946Z" fill="#F4F802"/>
<path d="M14.8692 6.50944L15.285 5.98834L15.0418 6.16476L14.6341 6.66206L14.8692 6.50944Z" fill="#FFDE00"/>
<path d="M16.3262 6.90224L16.7875 6.33274L16.5663 6.1116L16.1111 6.68558L16.3262 6.90224Z" fill="#FFE600"/>
<path d="M15.1176 6.41784L15.5418 5.87674L15.285 5.98838L14.8691 6.50947L15.1176 6.41784Z" fill="#FFD300"/>
<path d="M16.111 6.68543L16.5662 6.11145L16.3244 5.95184L15.8762 6.52518L16.111 6.68543Z" fill="#FFDB00"/>
<path d="M15.3725 6.38943L15.8051 5.83273L15.5415 5.87651L15.1173 6.4176L15.3725 6.38943Z" fill="#FFD000"/>
<path d="M15.8762 6.52505L16.3244 5.95171L16.0685 5.85797L15.6279 6.42547L15.8762 6.52505Z" fill="#FFD000"/>
<path d="M15.6278 6.42582L16.0685 5.85832L15.8052 5.83301L15.3727 6.38971L15.6278 6.42582Z" fill="#FFCC00"/>
<path d="M14.9842 11.4496L15.7317 11.2037L15.9711 11.0865L15.2134 11.3499L14.9842 11.4496Z" fill="#00D0FF"/>
<path d="M15.2133 11.35L15.971 11.0867L16.1952 10.9118L15.4277 11.1948L15.2133 11.35Z" fill="#00DCFE"/>
<path d="M15.4277 11.1948L16.1952 10.9119L16.3985 10.6836L15.622 10.9879L15.4277 11.1948Z" fill="#06ECF1"/>
<path d="M15.6221 10.988L16.3986 10.6837L16.5757 10.4076L15.7911 10.7345L15.6221 10.988Z" fill="#19FFDE"/>
<path d="M15.7911 10.7344L16.5757 10.4075L16.722 10.0904L15.9304 10.4406L15.7911 10.7344Z" fill="#29FFCE"/>
<path d="M15.9306 10.4404L16.7222 10.0902L16.8339 9.7402L16.0366 10.1137L15.9306 10.4404Z" fill="#40FFB7"/>
<path d="M16.0366 10.114L16.8339 9.74051L16.9078 9.36636L16.1063 9.76266L16.0366 10.114Z" fill="#56FFA0"/>
<path d="M16.1061 9.76236L16.9076 9.36606L16.9418 8.97739L16.1375 9.39544L16.1061 9.76236Z" fill="#6DFF8A"/>
<path d="M16.1376 9.39555L16.9418 8.9775L16.9351 8.58435L16.1299 9.02257L16.1376 9.39555Z" fill="#87FF70"/>
<path d="M16.1298 9.02274L16.935 8.58452L16.8875 8.19714L16.0829 8.6534L16.1298 9.02274Z" fill="#9DFF5A"/>
<path d="M16.0828 8.65312L16.8874 8.19686L16.8 7.82544L15.9978 8.29714L16.0828 8.65312Z" fill="#B4FF43"/>
<path d="M15.9981 8.29711L16.8003 7.82541L16.6754 7.4798L15.8771 7.96397L15.9981 8.29711Z" fill="#CAFF2C"/>
<path d="M15.877 7.96429L16.6752 7.48012L16.5157 7.16953L15.7231 7.66282L15.877 7.96429Z" fill="#DEFF19"/>
<path d="M15.7231 7.66269L16.5158 7.16939L16.326 6.90216L15.5404 7.40094L15.7231 7.66269Z" fill="#EEFF09"/>
<path d="M14.3815 6.88746L15.1176 6.4176L14.8691 6.50927L14.144 6.96292L14.3815 6.88746Z" fill="#FFDE00"/>
<path d="M15.5403 7.40109L16.3259 6.90231L16.1107 6.68564L15.3334 7.18618L15.5403 7.40109Z" fill="#FBF100"/>
<path d="M14.6258 6.87227L15.3728 6.38937L15.1177 6.41755L14.3816 6.8874L14.6258 6.87227Z" fill="#FFDB00"/>
<path d="M15.3336 7.18589L16.111 6.68535L15.8761 6.52509L15.1082 7.02354L15.3336 7.18589Z" fill="#FFE600"/>
<path d="M14.87 6.91827L15.6278 6.42574L15.3727 6.38959L14.6256 6.87248L14.87 6.91827Z" fill="#FFD700"/>
<path d="M15.1082 7.02347L15.8761 6.52502L15.6279 6.42548L14.8701 6.91801L15.1082 7.02347Z" fill="#FFDB00"/>
<path d="M13.9719 11.7172L14.9842 11.4496L15.2134 11.3499L14.1897 11.631L13.9719 11.7172Z" fill="#00D8FF"/>
<path d="M14.19 11.6312L15.2136 11.3502L15.4281 11.1949L14.3936 11.4906L14.19 11.6312Z" fill="#00E4F8"/>
<path d="M14.3934 11.4904L15.4278 11.1947L15.622 10.9878L14.5776 11.2988L14.3934 11.4904Z" fill="#0CF4EB"/>
<path d="M14.5779 11.2988L15.6223 10.9878L15.7913 10.7343L14.738 11.061L14.5779 11.2988Z" fill="#1CFFDB"/>
<path d="M14.7379 11.0612L15.7913 10.7345L15.9306 10.4406L14.8696 10.7831L14.7379 11.0612Z" fill="#2CFFCA"/>
<path d="M14.8696 10.7828L15.9306 10.4404L16.0366 10.1136L14.9694 10.4713L14.8696 10.7828Z" fill="#43FFB4"/>
<path d="M14.9691 10.4716L16.0362 10.1139L16.1059 9.7626L15.0342 10.1347L14.9691 10.4716Z" fill="#56FFA0"/>
<path d="M15.0345 10.1348L16.1063 9.76269L16.1377 9.39578L15.0632 9.78114L15.0345 10.1348Z" fill="#6DFF8A"/>
<path d="M15.0632 9.78075L16.1377 9.39539L16.1299 9.0224L15.0545 9.41953L15.0632 9.78075Z" fill="#83FF73"/>
<path d="M15.0546 9.41955L16.13 9.02242L16.0831 8.65308L15.0086 9.06021L15.0546 9.41955Z" fill="#9AFF5D"/>
<path d="M15.0083 9.06034L16.0828 8.65321L15.9979 8.29724L14.9261 8.7123L15.0083 9.06034Z" fill="#B1FF46"/>
<path d="M14.9261 8.71233L15.9978 8.29727L15.8768 7.96411L14.8098 8.38485L14.9261 8.71233Z" fill="#C4FF33"/>
<path d="M14.8099 8.38471L15.877 7.96398L15.7231 7.66251L14.6624 8.08652L14.8099 8.38471Z" fill="#D7FF1F"/>
<path d="M13.3832 7.27987L14.3813 6.88773L14.1438 6.96321L13.1576 7.3426L13.3832 7.27987Z" fill="#FFE600"/>
<path d="M14.6626 8.0867L15.7233 7.66269L15.5406 7.40097L14.4877 7.82574L14.6626 8.0867Z" fill="#E7FF0F"/>
<path d="M13.6155 7.27548L14.6257 6.87234L14.3815 6.88746L13.3834 7.2796L13.6155 7.27548Z" fill="#FFE200"/>
<path d="M14.4875 7.82589L15.5403 7.40111L15.3335 7.18619L14.2899 7.6092L14.4875 7.82589Z" fill="#F4F802"/>
<path d="M13.848 7.33027L14.8699 6.91822L14.6255 6.87247L13.6154 7.2756L13.848 7.33027Z" fill="#FFE200"/>
<path d="M14.2898 7.60909L15.3335 7.18608L15.108 7.02371L14.0748 7.44249L14.2898 7.60909Z" fill="#FEED00"/>
<path d="M14.0751 7.44229L15.1083 7.02352L14.8702 6.91806L13.8482 7.33011L14.0751 7.44229Z" fill="#FFE200"/>
<path d="M12.7649 12.0112L13.972 11.7173L14.1898 11.6311L12.9709 11.935L12.7649 12.0112Z" fill="#00DCFE"/>
<path d="M12.9711 11.9352L14.19 11.6313L14.3936 11.4907L13.1636 11.8045L12.9711 11.9352Z" fill="#02E8F4"/>
<path d="M13.1635 11.8044L14.3935 11.4906L14.5777 11.299L13.3374 11.6224L13.1635 11.8044Z" fill="#0FF8E7"/>
<path d="M13.3373 11.6224L14.5777 11.299L14.7377 11.0612L13.4882 11.3935L13.3373 11.6224Z" fill="#1FFFD7"/>
<path d="M13.4883 11.3932L14.7378 11.0609L14.8695 10.7828L13.6121 11.1231L13.4883 11.3932Z" fill="#30FFC7"/>
<path d="M13.6119 11.1232L14.8693 10.7829L14.9691 10.4714L13.7053 10.8187L13.6119 11.1232Z" fill="#43FFB4"/>
<path d="M13.7056 10.8188L14.9693 10.4715L15.0345 10.1346L13.7661 10.4877L13.7056 10.8188Z" fill="#5AFF9D"/>
<path d="M13.7661 10.4876L15.0344 10.1345L15.0631 9.78088L13.792 10.1383L13.7661 10.4876Z" fill="#6DFF8A"/>
<path d="M13.7919 10.1384L15.063 9.78096L15.0543 9.41974L13.7823 9.78005L13.7919 10.1384Z" fill="#83FF73"/>
<path d="M13.7825 9.77994L15.0545 9.41963L15.0085 9.06027L13.7376 9.42194L13.7825 9.77994Z" fill="#9AFF5D"/>
<path d="M13.7375 9.42195L15.0084 9.06028L14.9262 8.71225L13.6583 9.0737L13.7375 9.42195Z" fill="#B1FF46"/>
<path d="M13.6585 9.07394L14.9264 8.71249L14.8101 8.38501L13.5471 8.74469L13.6585 9.07394Z" fill="#C4FF33"/>
<path d="M13.5468 8.74473L14.8099 8.38505L14.6624 8.08685L13.4059 8.44326L13.5468 8.74473Z" fill="#D7FF1F"/>
<path d="M12.4114 7.59708L13.6156 7.27545L13.3835 7.27958L12.1917 7.59178L12.4114 7.59708Z" fill="#FFE600"/>
<path d="M13.4061 8.4431L14.6625 8.08669L14.4876 7.82574L13.2394 8.17747L13.4061 8.4431Z" fill="#E4FF13"/>
<path d="M12.6315 7.66069L13.8479 7.33018L13.6153 7.27548L12.4111 7.59711L12.6315 7.66069Z" fill="#FFE600"/>
<path d="M13.2391 8.17749L14.4873 7.82576L14.2897 7.60907L13.0511 7.95481L13.2391 8.17749Z" fill="#F1FC06"/>
<path d="M12.8467 7.78108L14.0747 7.44247L13.8478 7.33032L12.6315 7.66083L12.8467 7.78108Z" fill="#FFE600"/>
<path d="M13.0513 7.9547L14.29 7.60896L14.0749 7.44232L12.847 7.78093L13.0513 7.9547Z" fill="#FEED00"/>
<path d="M11.7764 12.1856L13.0691 11.8765L12.8692 11.9803L11.5747 12.2907L11.7764 12.1856Z" fill="#00E4F8"/>
<path d="M11.9617 12.0264L13.2531 11.7195L13.0693 11.8763L11.7766 12.1854L11.9617 12.0264Z" fill="#0CF4EB"/>
<path d="M12.1253 11.8176L13.4159 11.5135L13.2529 11.7197L11.9615 12.0267L12.1253 11.8176Z" fill="#19FFDE"/>
<path d="M12.2637 11.5636L13.5538 11.2631L13.416 11.5134L12.1255 11.8175L12.2637 11.5636Z" fill="#29FFCE"/>
<path d="M12.3725 11.2712L13.6629 10.9749L13.5538 11.2631L12.2637 11.5636L12.3725 11.2712Z" fill="#3CFFBA"/>
<path d="M12.449 10.9476L13.74 10.656L13.6627 10.9748L12.3724 11.2711L12.449 10.9476Z" fill="#53FFA4"/>
<path d="M12.4911 10.6012L13.7834 10.3147L13.74 10.656L12.449 10.9476L12.4911 10.6012Z" fill="#66FF90"/>
<path d="M12.4977 10.2408L13.7916 9.95963L13.7833 10.3146L12.4911 10.6011L12.4977 10.2408Z" fill="#7DFF7A"/>
<path d="M12.4683 9.87596L13.7643 9.60028L13.7916 9.95963L12.4977 10.2408L12.4683 9.87596Z" fill="#94FF63"/>
<path d="M12.4036 9.51633L13.7021 9.24609L13.7643 9.60039L12.4683 9.87607L12.4036 9.51633Z" fill="#AAFF4D"/>
<path d="M12.305 9.17114L13.6063 8.90616L13.702 9.24604L12.4035 9.51628L12.305 9.17114Z" fill="#BEFF39"/>
<path d="M12.1753 8.84994L13.4797 8.5899L13.6063 8.90632L12.3049 9.1713L12.1753 8.84994Z" fill="#D1FF26"/>
<path d="M10.9777 7.83069L12.3009 7.58704L12.5217 7.62158L11.2013 7.86595L10.9777 7.83069Z" fill="#FFE200"/>
<path d="M12.0178 8.56072L13.3254 8.30518L13.4797 8.58968L12.1753 8.84971L12.0178 8.56072Z" fill="#E1FF16"/>
<path d="M11.201 7.86629L12.5215 7.62192L12.7401 7.71413L11.4227 7.9601L11.201 7.86629Z" fill="#FFE600"/>
<path d="M11.8369 8.31191L13.1478 8.06027L13.3257 8.30524L12.0182 8.56079L11.8369 8.31191Z" fill="#EEFF09"/>
<path d="M11.4229 7.9599L12.7403 7.71393L12.9508 7.86143L11.6366 8.10985L11.4229 7.9599Z" fill="#FFEA00"/>
<path d="M11.6364 8.1099L12.9506 7.86148L13.1475 8.06037L11.8366 8.312L11.6364 8.1099Z" fill="#FBF100"/>
<path d="M10.4712 12.5285L11.7767 12.1857L11.575 12.2908L10.2628 12.6374L10.4712 12.5285Z" fill="#00E0FB"/>
<path d="M10.6619 12.3633L11.9615 12.0265L11.7764 12.1855L10.4709 12.5283L10.6619 12.3633Z" fill="#09F0EE"/>
<path d="M10.8308 12.146L12.1256 11.8174L11.9618 12.0264L10.6622 12.3631L10.8308 12.146Z" fill="#16FFE1"/>
<path d="M10.9724 11.8824L12.2634 11.5637L12.1253 11.8176L10.8305 12.1462L10.9724 11.8824Z" fill="#29FFCE"/>
<path d="M11.0837 11.5784L12.3723 11.2712L12.2635 11.5636L10.9724 11.8824L11.0837 11.5784Z" fill="#3CFFBA"/>
<path d="M11.1614 11.242L12.4489 10.9476L12.3723 11.2712L11.0837 11.5784L11.1614 11.242Z" fill="#50FFA7"/>
<path d="M11.2036 10.882L12.4913 10.6014L12.4491 10.9478L11.1616 11.2422L11.2036 10.882Z" fill="#66FF90"/>
<path d="M11.2085 10.5072L12.4978 10.241L12.4912 10.6013L11.2035 10.8819L11.2085 10.5072Z" fill="#7DFF7A"/>
<path d="M11.1761 10.1276L12.4684 9.87613L12.4978 10.2409L11.2085 10.5071L11.1761 10.1276Z" fill="#94FF63"/>
<path d="M11.107 9.75316L12.4035 9.5163L12.4682 9.87604L11.1759 10.1275L11.107 9.75316Z" fill="#AAFF4D"/>
<path d="M11.0035 9.39397L12.3053 9.17114L12.4038 9.51628L11.1073 9.75315L11.0035 9.39397Z" fill="#C1FF36"/>
<path d="M10.8672 9.05954L12.1755 8.84985L12.3052 9.17121L11.0033 9.39404L10.8672 9.05954Z" fill="#D4FF23"/>
<path d="M9.62012 7.99831L10.9776 7.83087L11.2012 7.86613L9.85207 8.03514L9.62012 7.99831Z" fill="#FFDE00"/>
<path d="M10.7023 8.75875L12.0179 8.56091L12.1754 8.8499L10.8671 9.05959L10.7023 8.75875Z" fill="#E4FF13"/>
<path d="M9.85211 8.0351L11.2013 7.86609L11.4229 7.9599L10.0824 8.13288L9.85211 8.0351Z" fill="#FFDE00"/>
<path d="M10.5133 8.49953L11.8368 8.31195L12.0181 8.56083L10.7025 8.75867L10.5133 8.49953Z" fill="#F1FC06"/>
<path d="M10.0825 8.13312L11.423 7.96014L11.6367 8.11009L10.3048 8.2893L10.0825 8.13312Z" fill="#FFE600"/>
<path d="M10.3046 8.28911L11.6365 8.10989L11.8367 8.312L10.5132 8.49958L10.3046 8.28911Z" fill="#FEED00"/>
<path d="M9.01289 13.0217L10.2628 12.6374L10.0424 12.6877L8.77997 13.0747L9.01289 13.0217Z" fill="#00CCFF"/>
<path d="M9.23257 12.9061L10.471 12.5281L10.2626 12.6371L9.0127 13.0214L9.23257 12.9061Z" fill="#00D8FF"/>
<path d="M9.43393 12.7313L10.6622 12.3631L10.4712 12.5281L9.23273 12.9061L9.43393 12.7313Z" fill="#02E8F4"/>
<path d="M9.61105 12.5013L10.8306 12.1461L10.6619 12.3632L9.43372 12.7314L9.61105 12.5013Z" fill="#13FCE4"/>
<path d="M9.76001 12.2216L10.9726 11.8825L10.8307 12.1463L9.61121 12.5014L9.76001 12.2216Z" fill="#23FFD4"/>
<path d="M9.87618 11.8988L11.0837 11.5783L10.9724 11.8822L9.75989 12.2213L9.87618 11.8988Z" fill="#39FFBE"/>
<path d="M9.95681 11.542L11.1615 11.2421L11.0838 11.5785L9.87622 11.8991L9.95681 11.542Z" fill="#50FFA7"/>
<path d="M9.99934 11.1596L11.2033 10.882L11.1614 11.2422L9.95667 11.5421L9.99934 11.1596Z" fill="#66FF90"/>
<path d="M10.003 10.7616L11.2086 10.5072L11.2036 10.882L9.99963 11.1596L10.003 10.7616Z" fill="#7DFF7A"/>
<path d="M9.96661 10.3584L11.1759 10.1276L11.2083 10.5071L10.0027 10.7615L9.96661 10.3584Z" fill="#97FF60"/>
<path d="M9.89178 9.96036L11.107 9.75305L11.1759 10.1274L9.96661 10.3581L9.89178 9.96036Z" fill="#ADFF49"/>
<path d="M9.78003 9.57876L11.0031 9.39401L11.107 9.7532L9.89177 9.96051L9.78003 9.57876Z" fill="#C4FF33"/>
<path d="M9.6344 9.22314L10.8672 9.05948L11.0033 9.39397L9.78015 9.57872L9.6344 9.22314Z" fill="#D7FF1F"/>
<path d="M8.30872 8.0947L9.62032 7.99844L9.85229 8.03527L8.55451 8.13394L8.30872 8.0947Z" fill="#FFD700"/>
<path d="M9.45844 8.90353L10.7024 8.75888L10.8673 9.05973L9.6345 9.22339L9.45844 8.90353Z" fill="#EBFF0C"/>
<path d="M8.5542 8.13391L9.85197 8.03525L10.0822 8.13302L8.79846 8.23794L8.5542 8.13391Z" fill="#FFD700"/>
<path d="M9.25671 8.62793L10.5132 8.49969L10.7024 8.75883L9.45834 8.90348L9.25671 8.62793Z" fill="#F8F500"/>
<path d="M8.79846 8.23792L10.0822 8.133L10.3046 8.28918L9.03473 8.40405L8.79846 8.23792Z" fill="#FFDB00"/>
<path d="M9.03497 8.4039L10.3048 8.28903L10.5134 8.4995L9.2569 8.62774L9.03497 8.4039Z" fill="#FFE600"/>
<path d="M5.02358 14.1437L5.84759 13.6951L5.58284 13.4693L4.73334 13.8961L5.02358 14.1437Z" fill="#00A0FF"/>
<path d="M4.73349 13.8961L5.58298 13.4693L5.33704 13.1816L4.46356 13.5808L4.73349 13.8961Z" fill="#00B0FF"/>
<path d="M5.32679 14.3173L6.1244 13.8532L5.84745 13.6949L5.02344 14.1435L5.32679 14.3173Z" fill="#0094FF"/>
<path d="M4.46344 13.5805L5.33692 13.1813L5.11595 12.839L4.22058 13.2053L4.46344 13.5805Z" fill="#00C4FF"/>
<path d="M5.6357 14.4129L6.40664 13.9401L6.1244 13.8533L5.32678 14.3174L5.6357 14.4129Z" fill="#0094FF"/>
<path d="M4.2204 13.2057L5.11577 12.8393L4.92534 12.4507L4.01074 12.7799L4.2204 13.2057Z" fill="#00E0FB"/>
<path d="M5.94258 14.4277L6.68721 13.9532L6.40674 13.9402L5.6358 14.413L5.94258 14.4277Z" fill="#0094FF"/>
<path d="M4.01093 12.7796L4.92553 12.4505L4.7705 12.0254L3.83978 12.3138L4.01093 12.7796Z" fill="#13FCE4"/>
<path d="M6.23962 14.3609L6.95896 13.8916L6.68732 13.9531L5.94269 14.4276L6.23962 14.3609Z" fill="#009CFF"/>
<path d="M3.83988 12.314L4.77059 12.0256L4.65499 11.5745L3.71167 11.8196L3.83988 12.314Z" fill="#30FFC7"/>
<path d="M6.51907 14.2141L7.21472 13.7572L6.95879 13.8917L6.23944 14.361L6.51907 14.2141Z" fill="#00ACFF"/>
<path d="M3.71139 11.8192L4.65471 11.5741L4.58161 11.1082L3.62958 11.3086L3.71139 11.8192Z" fill="#49FFAD"/>
<path d="M3.62955 11.3088L4.58158 11.1085L4.55305 10.6397L3.59644 10.7948L3.62955 11.3088Z" fill="#6AFF8D"/>
<path d="M3.59644 10.7948L4.55305 10.6397L4.57004 10.1799L3.6131 10.2906L3.59644 10.7948Z" fill="#87FF70"/>
<path d="M3.61322 10.2904L4.57016 10.1797L4.6325 9.74088L3.67964 9.80887L3.61322 10.2904Z" fill="#A7FF50"/>
<path d="M3.6795 9.80914L4.63236 9.74115L4.73868 9.33466L3.79417 9.36301L3.6795 9.80914Z" fill="#C4FF33"/>
<path d="M3.79449 9.36273L4.739 9.33438L4.88681 8.97098L3.95478 8.96375L3.79449 9.36273Z" fill="#DEFF19"/>
<path d="M3.95447 8.96393L4.88649 8.97116L5.07216 8.6606L4.15646 8.62283L3.95447 8.96393Z" fill="#F8F500"/>
<path d="M4.15656 8.62272L5.07226 8.66049L5.29112 8.41124L4.39522 8.34885L4.15656 8.62272Z" fill="#FFDB00"/>
<path d="M4.39514 8.34911L5.29104 8.4115L5.53748 8.23044L4.66438 8.15009L4.39514 8.34911Z" fill="#FFC800"/>
<path d="M4.66437 8.1499L5.53748 8.23026L5.80509 8.12252L4.95711 8.0314L4.66437 8.1499Z" fill="#FFB900"/>
<path d="M4.95728 8.03149L5.80526 8.12261L6.087 8.09136L5.26586 7.99704L4.95728 8.03149Z" fill="#FFAE00"/>
<path d="M4.41312 14.5941L5.02359 14.1437L4.73335 13.8961L4.09448 14.3222L4.41312 14.5941Z" fill="#008CFF"/>
<path d="M4.0944 14.3221L4.73327 13.896L4.46335 13.5807L3.79785 13.9761L4.0944 14.3221Z" fill="#009CFF"/>
<path d="M4.74578 14.7849L5.32679 14.3173L5.02343 14.1435L4.41296 14.5939L4.74578 14.7849Z" fill="#0080FF"/>
<path d="M3.79775 13.9761L4.46325 13.5808L4.2204 13.2056L3.53064 13.5644L3.79775 13.9761Z" fill="#00B4FF"/>
<path d="M5.08454 14.8901L5.63572 14.4127L5.3268 14.3172L4.74579 14.7848L5.08454 14.8901Z" fill="#007CFF"/>
<path d="M3.53057 13.5645L4.22033 13.2057L4.01066 12.7799L3.29962 13.0973L3.53057 13.5645Z" fill="#00D0FF"/>
<path d="M5.42088 14.9069L5.94256 14.4276L5.63577 14.4129L5.08459 14.8902L5.42088 14.9069Z" fill="#007CFF"/>
<path d="M3.29979 13.0973L4.01083 12.7799L3.83968 12.314L3.11084 12.586L3.29979 13.0973Z" fill="#09F0EE"/>
<path d="M5.74617 14.8341L6.23941 14.3606L5.94246 14.4274L5.42078 14.9067L5.74617 14.8341Z" fill="#0088FF"/>
<path d="M3.11078 12.5861L3.83962 12.314L3.71142 11.8196L2.96875 12.0434L3.11078 12.5861Z" fill="#26FFD1"/>
<path d="M6.05261 14.6737L6.51914 14.2139L6.23952 14.3607L5.74628 14.8342L6.05261 14.6737Z" fill="#0098FF"/>
<path d="M2.96877 12.0432L3.71144 11.8194L3.62962 11.3088L2.8775 11.4826L2.96877 12.0432Z" fill="#46FFB1"/>
<path d="M6.33206 14.4289L6.77433 13.9902L6.5192 14.2138L6.05267 14.6736L6.33206 14.4289Z" fill="#00ACFF"/>
<path d="M2.87753 11.4828L3.62965 11.309L3.59653 10.795L2.83954 10.9184L2.87753 11.4828Z" fill="#66FF90"/>
<path d="M2.83948 10.9184L3.59647 10.795L3.61316 10.2908L2.85613 10.3645L2.83948 10.9184Z" fill="#8AFF6D"/>
<path d="M2.85626 10.3644L3.61329 10.2906L3.67967 9.80914L2.92747 9.83523L2.85626 10.3644Z" fill="#AAFF4D"/>
<path d="M2.92743 9.83515L3.67963 9.80905L3.79431 9.36292L3.05172 9.34467L2.92743 9.83515Z" fill="#CAFF2C"/>
<path d="M3.05182 9.34475L3.7944 9.36301L3.9547 8.96402L3.22639 8.90591L3.05182 9.34475Z" fill="#E7FF0F"/>
<path d="M3.22614 8.90592L3.95444 8.96402L4.15645 8.62292L3.44668 8.53058L3.22614 8.90592Z" fill="#FFE600"/>
<path d="M3.44666 8.5303L4.15643 8.62265L4.39509 8.34877L3.70774 8.22879L3.44666 8.5303Z" fill="#FFCC00"/>
<path d="M3.70813 8.22909L4.39548 8.34907L4.66469 8.15005L4.00308 8.00986L3.70813 8.22909Z" fill="#FFB600"/>
<path d="M4.00275 8.00988L4.66436 8.15007L4.95711 8.03158L4.32386 7.87924L4.00275 8.00988Z" fill="#FFA300"/>
<path d="M4.32391 7.87909L4.95717 8.03142L5.26575 7.99698L4.66273 7.84097L4.32391 7.87909Z" fill="#FF9800"/>
<path d="M4.66272 7.84109L5.26574 7.9971L5.58193 8.04793L5.01017 7.8969L4.66272 7.84109Z" fill="#FF9400"/>
<path d="M5.01007 7.8967L5.58183 8.04774L5.89716 8.18271L5.35682 8.04519L5.01007 7.8967Z" fill="#FF9400"/>
<path d="M4.00846 15.0277L4.41312 14.594L4.09448 14.3221L3.6593 14.7297L4.00846 15.0277Z" fill="#0074FF"/>
<path d="M3.65941 14.7297L4.09459 14.322L3.79803 13.976L3.33429 14.3506L3.65941 14.7297Z" fill="#0084FF"/>
<path d="M4.37301 15.2374L4.74596 14.7851L4.41315 14.5941L4.00848 15.0278L4.37301 15.2374Z" fill="#0068FF"/>
<path d="M3.33413 14.3505L3.79787 13.9759L3.53076 13.5642L3.04108 13.8996L3.33413 14.3505Z" fill="#00A0FF"/>
<path d="M4.74368 15.353L5.08445 14.8901L4.74569 14.7849L4.37274 15.2372L4.74368 15.353Z" fill="#0064FF"/>
<path d="M3.04118 13.8997L3.53086 13.5643L3.29991 13.097L2.78748 13.388L3.04118 13.8997Z" fill="#00C0FF"/>
<path d="M5.11194 15.3718L5.42082 14.9068L5.08454 14.8901L4.74377 15.3529L5.11194 15.3718Z" fill="#0064FF"/>
<path d="M2.78753 13.3881L3.29996 13.0971L3.11103 12.5859L2.57965 12.8281L2.78753 13.3881Z" fill="#00E4F8"/>
<path d="M5.46834 15.293L5.74641 14.8342L5.42101 14.9068L5.11212 15.3718L5.46834 15.293Z" fill="#0070FF"/>
<path d="M2.57966 12.8281L3.11103 12.5859L2.96902 12.0432L2.42303 12.2336L2.57966 12.8281Z" fill="#1FFFD7"/>
<path d="M5.80345 15.1181L6.05251 14.674L5.74621 14.8345L5.46814 15.2932L5.80345 15.1181Z" fill="#0080FF"/>
<path d="M2.42293 12.2336L2.96891 12.0433L2.87762 11.4827L2.32166 11.6193L2.42293 12.2336Z" fill="#40FFB7"/>
<path d="M6.1095 14.8505L6.3321 14.4291L6.05271 14.6738L5.80365 15.1179L6.1095 14.8505Z" fill="#0098FF"/>
<path d="M2.32149 11.6192L2.87745 11.4826L2.83948 10.9182L2.27856 11.0005L2.32149 11.6192Z" fill="#66FF90"/>
<path d="M6.37789 14.4969L6.57727 14.1058L6.33204 14.4291L6.10944 14.8505L6.37789 14.4969Z" fill="#00B4FF"/>
<path d="M2.2785 11.0004L2.83942 10.9181L2.85607 10.3642L2.2954 10.393L2.2785 11.0004Z" fill="#8AFF6D"/>
<path d="M2.29572 10.3932L2.85639 10.3644L2.92759 9.83531L2.3724 9.81271L2.29572 10.3932Z" fill="#ADFF49"/>
<path d="M2.37219 9.81277L2.92738 9.83536L3.05169 9.34487L2.50718 9.27438L2.37219 9.81277Z" fill="#D1FF26"/>
<path d="M2.5072 9.27436L3.05171 9.34484L3.22626 8.90599L2.69742 8.79242L2.5072 9.27436Z" fill="#F4F802"/>
<path d="M2.69751 8.79235L3.22635 8.90591L3.44692 8.53058L2.93842 8.37994L2.69751 8.79235Z" fill="#FFD700"/>
<path d="M2.93848 8.37991L3.44698 8.53054L3.70807 8.22903L3.22403 8.04843L2.93848 8.37991Z" fill="#FFB900"/>
<path d="M3.22406 8.04832L3.7081 8.22892L4.00303 8.00968L3.54702 7.80713L3.22406 8.04832Z" fill="#FF9F00"/>
<path d="M3.54688 7.8071L4.00288 8.00966L4.32399 7.87901L3.89879 7.66321L3.54688 7.8071Z" fill="#FF8D00"/>
<path d="M3.8988 7.66351L4.324 7.87931L4.66281 7.84119L4.27046 7.62131L3.8988 7.66351Z" fill="#FF8200"/>
<path d="M4.27032 7.62109L4.66267 7.84098L5.01013 7.89678L4.6517 7.68217L4.27032 7.62109Z" fill="#FF7A00"/>
<path d="M4.65161 7.68228L5.01004 7.89689L5.3568 8.04539L5.03243 7.84532L4.65161 7.68228Z" fill="#FF7E00"/>
<path d="M6.57713 14.1057L6.9982 13.6953L6.77417 13.9903L6.33191 14.429L6.57713 14.1057Z" fill="#00C8FF"/>
<path d="M3.70812 16.0146L3.69925 15.7598L3.28633 15.4073L3.26379 15.6352L3.70812 16.0146Z" fill="#0028FF"/>
<path d="M3.26374 15.6354L3.28627 15.4074L2.90154 14.9593L2.84973 15.1532L3.26374 15.6354Z" fill="#0040FF"/>
<path d="M4.17208 16.2822L4.13041 16.0083L3.6994 15.7601L3.70826 16.0149L4.17208 16.2822Z" fill="#0018FF"/>
<path d="M2.85013 15.1533L2.90193 14.9594L2.55485 14.4265L2.47656 14.5801L2.85013 15.1533Z" fill="#0060FF"/>
<path d="M4.64426 16.4306L4.56913 16.1459L4.13055 16.0082L4.17222 16.282L4.64426 16.4306Z" fill="#0010FF"/>
<path d="M2.47652 14.5801L2.5548 14.4265L2.25398 13.8217L2.15265 13.9294L2.47652 14.5801Z" fill="#0088FF"/>
<path d="M5.11274 16.4566L5.00428 16.1697L4.56885 16.1462L4.64397 16.4308L5.11274 16.4566Z" fill="#0014FF"/>
<path d="M2.15249 13.9293L2.25382 13.8216L2.00687 13.1596L1.88647 13.2169L2.15249 13.9293Z" fill="#00B4FF"/>
<path d="M5.56692 16.3582L5.42601 16.0777L5.00458 16.1696L5.11304 16.4564L5.56692 16.3582Z" fill="#0020FF"/>
<path d="M1.8865 13.2169L2.0069 13.1595L1.8202 12.4564L1.68524 12.46L1.8865 13.2169Z" fill="#02E8F4"/>
<path d="M5.99453 16.1374L5.82286 15.872L5.4259 16.0775L5.56681 16.358L5.99453 16.1374Z" fill="#0038FF"/>
<path d="M1.6852 12.4601L1.82017 12.4564L1.69878 11.7294L1.55414 11.6772L1.6852 12.4601Z" fill="#30FFC7"/>
<path d="M6.38522 15.7994L6.18524 15.5574L5.82288 15.8723L5.99454 16.1377L6.38522 15.7994Z" fill="#0054FF"/>
<path d="M1.55428 11.6772L1.69892 11.7294L1.64636 10.9966L1.49725 10.8878L1.55428 11.6772Z" fill="#60FF97"/>
<path d="M6.72855 15.3506L6.50343 15.14L6.18506 15.5571L6.38504 15.7991L6.72855 15.3506Z" fill="#007CFF"/>
<path d="M1.49701 10.8876L1.64612 10.9964L1.66428 10.2763L1.51611 10.1115L1.49701 10.8876Z" fill="#8DFF6A"/>
<path d="M7.01575 14.8025L6.76934 14.6308L6.50342 15.1403L6.72855 15.3509L7.01575 14.8025Z" fill="#00A8FF"/>
<path d="M1.51624 10.1116L1.66441 10.2763L1.75345 9.58744L1.61169 9.3688L1.51624 10.1116Z" fill="#BEFF39"/>
<path d="M7.23875 14.1673L6.97553 14.0407L6.76935 14.6305L7.01576 14.8023L7.23875 14.1673Z" fill="#00D8FF"/>
<path d="M1.61157 9.36916L1.75333 9.5878L1.91159 8.94826L1.78167 8.67917L1.61157 9.36916Z" fill="#EBFF0C"/>
<path d="M7.39137 13.4613L7.11633 13.3853L6.97577 14.0408L7.23899 14.1674L7.39137 13.4613Z" fill="#23FFD4"/>
<path d="M1.7818 8.67911L1.91172 8.9482L2.13573 8.3751L2.02285 8.06042L1.7818 8.67911Z" fill="#FFD300"/>
<path d="M7.46827 12.7016L7.18682 12.6805L7.11615 13.3851L7.39119 13.4611L7.46827 12.7016Z" fill="#50FFA7"/>
<path d="M2.02277 8.06032L2.13565 8.375L2.4201 7.88394L2.32912 7.52985L2.02277 8.06032Z" fill="#FFA700"/>
<path d="M7.46749 11.9084L7.1853 11.9448L7.18702 12.6806L7.46847 12.7018L7.46749 11.9084Z" fill="#80FF77"/>
<path d="M2.32922 7.5299L2.4202 7.88399L2.7581 7.48876L2.69337 7.1026L2.32922 7.5299Z" fill="#FF8200"/>
<path d="M7.38766 11.1024L7.11053 11.1976L7.18521 11.9451L7.4674 11.9087L7.38766 11.1024Z" fill="#B1FF46"/>
<path d="M2.69342 7.10267L2.75815 7.48883L3.1409 7.20075L3.10611 6.79089L2.69342 7.10267Z" fill="#FF6000"/>
<path d="M7.23055 10.3044L6.96423 10.4581L7.11045 11.1974L7.38758 11.1022L7.23055 10.3044Z" fill="#DEFF19"/>
<path d="M3.10583 6.79066L3.14062 7.20051L3.55825 7.02811L3.55632 6.6037L3.10583 6.79066Z" fill="#FF4A00"/>
<path d="M6.9998 9.53674L6.74982 9.74687L6.96413 10.4581L7.23045 10.3044L6.9998 9.53674Z" fill="#FFE200"/>
<path d="M3.55634 6.60384L3.55826 7.02826L3.99971 6.97695L4.03266 6.5477L3.55634 6.60384Z" fill="#FF3800"/>
<path d="M6.70153 8.82034L6.47302 9.0833L6.75002 9.74684L7 9.53671L6.70153 8.82034Z" fill="#FFB200"/>
<path d="M4.03302 6.54745L4.00006 6.97671L4.45341 7.04852L4.52229 6.62435L4.03302 6.54745Z" fill="#FF3000"/>
<path d="M6.3431 8.17511L6.14062 8.4857L6.47307 9.08332L6.70158 8.82037L6.3431 8.17511Z" fill="#FF8D00"/>
<path d="M4.52194 6.62466L4.45306 7.04884L4.906 7.24229L5.01082 6.83304L4.52194 6.62466Z" fill="#FF3400"/>
<path d="M5.93395 7.61908L5.76135 7.9707L6.14033 8.48584L6.34281 8.17525L5.93395 7.61908Z" fill="#FF6800"/>
<path d="M5.01088 6.83307L4.90607 7.24232L5.3462 7.55243L5.48593 7.16759L5.01088 6.83307Z" fill="#FF3B00"/>
<path d="M5.48592 7.16748L5.34619 7.55231L5.76141 7.97069L5.934 7.61906L5.48592 7.16748Z" fill="#FF4E00"/>
<path d="M3.69955 15.7602L3.78383 15.424L3.40295 15.0989L3.28662 15.4076L3.69955 15.7602Z" fill="#0040FF"/>
<path d="M3.28629 15.4073L3.40262 15.0986L3.0478 14.6851L2.90155 14.9592L3.28629 15.4073Z" fill="#0058FF"/>
<path d="M4.13037 16.0082L4.18121 15.6525L3.78362 15.4237L3.69934 15.7599L4.13037 16.0082Z" fill="#0034FF"/>
<path d="M2.90165 14.9593L3.0479 14.6853L2.72791 14.1936L2.55457 14.4265L2.90165 14.9593Z" fill="#0074FF"/>
<path d="M4.56897 16.1462L4.58576 15.7795L4.18122 15.6528L4.13037 16.0084L4.56897 16.1462Z" fill="#002CFF"/>
<path d="M2.55473 14.4265L2.72807 14.1936L2.45087 13.6357L2.25391 13.8218L2.55473 14.4265Z" fill="#009CFF"/>
<path d="M5.00432 16.1694L4.98724 15.8004L4.5857 15.7792L4.56891 16.1459L5.00432 16.1694Z" fill="#0030FF"/>
<path d="M2.25398 13.8217L2.45094 13.6356L2.22355 13.0248L2.00702 13.1596L2.25398 13.8217Z" fill="#00C4FF"/>
<path d="M5.42578 16.0778L5.3758 15.7153L4.98724 15.8006L5.00432 16.1696L5.42578 16.0778Z" fill="#003CFF"/>
<path d="M2.00682 13.1597L2.22335 13.0249L2.05166 12.3763L1.82013 12.4565L2.00682 13.1597Z" fill="#0CF4EB"/>
<path d="M5.82267 15.8722L5.74156 15.525L5.37573 15.7152L5.42571 16.0777L5.82267 15.8722Z" fill="#0050FF"/>
<path d="M1.82024 12.4564L2.05177 12.3763L1.94041 11.7059L1.69885 11.7294L1.82024 12.4564Z" fill="#36FFC1"/>
<path d="M6.18516 15.5574L6.07548 15.234L5.7417 15.525L5.82281 15.8722L6.18516 15.5574Z" fill="#006CFF"/>
<path d="M1.69874 11.7292L1.94029 11.7058L1.89247 11.0304L1.64618 10.9964L1.69874 11.7292Z" fill="#60FF97"/>
<path d="M6.5035 15.1401L6.36852 14.8487L6.07544 15.2339L6.18512 15.5572L6.5035 15.1401Z" fill="#0090FF"/>
<path d="M1.64636 10.9964L1.89265 11.0304L1.91005 10.3671L1.66453 10.2763L1.64636 10.9964Z" fill="#8DFF6A"/>
<path d="M6.76948 14.6305L6.6132 14.3784L6.36859 14.8487L6.50357 15.1401L6.76948 14.6305Z" fill="#00B8FF"/>
<path d="M1.66437 10.2764L1.90989 10.3671L1.99259 9.73288L1.75341 9.58752L1.66437 10.2764Z" fill="#B7FF40"/>
<path d="M6.97569 14.0409L6.80268 13.8347L6.61322 14.3786L6.7695 14.6307L6.97569 14.0409Z" fill="#02E8F4"/>
<path d="M1.75354 9.58754L1.99272 9.73289L2.13915 9.1444L1.91181 8.94803L1.75354 9.58754Z" fill="#E1FF16"/>
<path d="M7.116 13.3853L6.93137 13.2304L6.80243 13.8346L6.97544 14.0408L7.116 13.3853Z" fill="#29FFCE"/>
<path d="M1.9115 8.94794L2.13884 9.14431L2.3457 8.61721L2.1355 8.37482L1.9115 8.94794Z" fill="#FFDE00"/>
<path d="M7.18682 12.6804L6.99606 12.5811L6.93152 13.2303L7.11615 13.3851L7.18682 12.6804Z" fill="#53FFA4"/>
<path d="M2.13574 8.37512L2.34595 8.61751L2.60834 8.16618L2.42019 7.88406L2.13574 8.37512Z" fill="#FFB600"/>
<path d="M7.18515 11.9448L6.99402 11.9038L6.99611 12.5812L7.18686 12.6806L7.18515 11.9448Z" fill="#80FF77"/>
<path d="M2.4201 7.88388L2.60825 8.16599L2.91967 7.80299L2.758 7.48865L2.4201 7.88388Z" fill="#FF9400"/>
<path d="M7.11031 11.1976L6.92468 11.2162L6.99387 11.9041L7.18499 11.9451L7.11031 11.1976Z" fill="#ADFF49"/>
<path d="M2.75806 7.48868L2.91972 7.80302L3.27224 7.53868L3.14081 7.20059L2.75806 7.48868Z" fill="#FF7700"/>
<path d="M6.96425 10.458L6.78992 10.5357L6.92484 11.2159L7.11047 11.1973L6.96425 10.458Z" fill="#D7FF1F"/>
<path d="M3.14062 7.20066L3.27206 7.53875L3.65651 7.38082L3.55826 7.02826L3.14062 7.20066Z" fill="#FF6000"/>
<path d="M6.74983 9.74677L6.59235 9.88165L6.7898 10.5357L6.96414 10.4579L6.74983 9.74677Z" fill="#FEED00"/>
<path d="M3.55835 7.02826L3.6566 7.38083L4.06278 7.33421L3.99979 6.97696L3.55835 7.02826Z" fill="#FF5200"/>
<path d="M6.47282 9.08353L6.33734 9.27187L6.59234 9.88197L6.74982 9.74708L6.47282 9.08353Z" fill="#FFC400"/>
<path d="M3.99988 6.97705L4.06287 7.3343L4.47988 7.40077L4.45323 7.04886L3.99988 6.97705Z" fill="#FF4A00"/>
<path d="M6.14059 8.4859L6.03168 8.72246L6.33755 9.27188L6.47303 9.08354L6.14059 8.4859Z" fill="#FF9F00"/>
<path d="M4.45319 7.04868L4.47984 7.40059L4.8964 7.57876L4.90614 7.24213L4.45319 7.04868Z" fill="#FF4A00"/>
<path d="M5.76168 7.9707L5.68317 8.24883L6.03175 8.7224L6.14066 8.48584L5.76168 7.9707Z" fill="#FF7E00"/>
<path d="M4.90616 7.24228L4.89642 7.57891L5.30115 7.86419L5.34628 7.55238L4.90616 7.24228Z" fill="#FF5500"/>
<path d="M5.3464 7.55228L5.30127 7.86408L5.68313 8.24877L5.76164 7.97065L5.3464 7.55228Z" fill="#FF6800"/>
<path d="M3.78383 15.4237L4.00855 15.0277L3.65942 14.7297L3.40295 15.0986L3.78383 15.4237Z" fill="#005CFF"/>
<path d="M3.40291 15.0985L3.65937 14.7296L3.33424 14.3505L3.0481 14.6851L3.40291 15.0985Z" fill="#0070FF"/>
<path d="M4.18116 15.6525L4.37282 15.2372L4.00829 15.0276L3.78357 15.4237L4.18116 15.6525Z" fill="#004CFF"/>
<path d="M3.04815 14.6853L3.33429 14.3507L3.04121 13.8998L2.72815 14.1936L3.04815 14.6853Z" fill="#008CFF"/>
<path d="M4.58576 15.7794L4.74381 15.3531L4.37288 15.2373L4.18121 15.6527L4.58576 15.7794Z" fill="#0048FF"/>
<path d="M2.72782 14.1937L3.04089 13.8999L2.7872 13.3882L2.45062 13.6357L2.72782 14.1937Z" fill="#00ACFF"/>
<path d="M4.98717 15.8005L5.11185 15.3719L4.74368 15.3531L4.58563 15.7794L4.98717 15.8005Z" fill="#004CFF"/>
<path d="M2.45078 13.6357L2.78736 13.3882L2.57949 12.8282L2.22339 13.025L2.45078 13.6357Z" fill="#00D4FF"/>
<path d="M5.37586 15.7153L5.4682 15.2932L5.11198 15.3721L4.9873 15.8007L5.37586 15.7153Z" fill="#0054FF"/>
<path d="M2.22333 13.0249L2.57943 12.8281L2.42278 12.2336L2.05164 12.3763L2.22333 13.0249Z" fill="#16FFE1"/>
<path d="M5.74168 15.5249L5.80351 15.1179L5.4682 15.293L5.37585 15.7151L5.74168 15.5249Z" fill="#0068FF"/>
<path d="M2.05186 12.3764L2.423 12.2337L2.32176 11.6194L1.94049 11.7061L2.05186 12.3764Z" fill="#3CFFBA"/>
<path d="M6.07554 15.2341L6.10944 14.8507L5.80358 15.1182L5.74176 15.5252L6.07554 15.2341Z" fill="#0080FF"/>
<path d="M1.94016 11.706L2.32143 11.6193L2.2785 11.0006L1.89233 11.0306L1.94016 11.706Z" fill="#63FF94"/>
<path d="M6.36852 14.8489L6.37779 14.4971L6.10934 14.8507L6.07544 15.2341L6.36852 14.8489Z" fill="#00A0FF"/>
<path d="M1.8927 11.0304L2.27887 11.0004L2.29575 10.393L1.9101 10.3671L1.8927 11.0304Z" fill="#8DFF6A"/>
<path d="M6.6132 14.3785L6.60183 14.0655L6.37787 14.4969L6.36859 14.8487L6.6132 14.3785Z" fill="#00C8FF"/>
<path d="M1.90991 10.3672L2.29556 10.3931L2.37226 9.81257L1.99261 9.73294L1.90991 10.3672Z" fill="#B4FF43"/>
<path d="M6.80263 13.8345L6.77518 13.5667L6.60181 14.0654L6.61317 14.3784L6.80263 13.8345Z" fill="#0CF4EB"/>
<path d="M1.99255 9.73275L2.3722 9.81238L2.50718 9.274L2.13898 9.14423L1.99255 9.73275Z" fill="#DBFF1C"/>
<path d="M6.93153 13.2305L6.89306 13.0133L6.77515 13.5669L6.80259 13.8346L6.93153 13.2305Z" fill="#30FFC7"/>
<path d="M2.13904 9.14432L2.50724 9.2741L2.69746 8.79216L2.3459 8.61722L2.13904 9.14432Z" fill="#FEED00"/>
<path d="M6.99614 12.5813L6.95208 12.4189L6.89313 13.0133L6.9316 13.2304L6.99614 12.5813Z" fill="#56FFA0"/>
<path d="M2.34607 8.6175L2.69762 8.79245L2.93851 8.38003L2.60846 8.16617L2.34607 8.6175Z" fill="#FFC800"/>
<path d="M7.00079 11.904L6.95013 11.799L6.95245 12.419L7.0032 12.5814L7.00079 11.904Z" fill="#80FF77"/>
<path d="M2.60834 8.16588L2.93838 8.37975L3.22395 8.04827L2.91976 7.80289L2.60834 8.16588Z" fill="#FFA700"/>
<path d="M6.92495 11.216L6.88678 11.1696L6.95014 11.7989L6.99413 11.9039L6.92495 11.216Z" fill="#A7FF50"/>
<path d="M2.91968 7.80307L3.22387 8.04845L3.54683 7.80726L3.2722 7.53873L2.91968 7.80307Z" fill="#FF8D00"/>
<path d="M6.78993 10.536L6.76324 10.5478L6.88668 11.1698L6.92485 11.2161L6.78993 10.536Z" fill="#CEFF29"/>
<path d="M3.2724 7.53866L3.54703 7.8072L3.89898 7.6633L3.65684 7.38074L3.2724 7.53866Z" fill="#FF7700"/>
<path d="M6.59229 9.88196L6.58252 9.94996L6.76307 10.5478L6.78975 10.536L6.59229 9.88196Z" fill="#F4F802"/>
<path d="M3.65662 7.38067L3.89875 7.66324L4.27039 7.62103L4.0628 7.33405L3.65662 7.38067Z" fill="#FF6C00"/>
<path d="M6.3374 9.27155L6.34954 9.39209L6.58263 9.94963L6.5924 9.88163L6.3374 9.27155Z" fill="#FFD300"/>
<path d="M4.06287 7.33426L4.27046 7.62125L4.65183 7.68232L4.47989 7.40073L4.06287 7.33426Z" fill="#FF6400"/>
<path d="M6.03174 8.72232L6.07021 8.89026L6.34975 9.39227L6.33761 9.27173L6.03174 8.72232Z" fill="#FFB200"/>
<path d="M4.4798 7.40067L4.65174 7.68225L5.03256 7.84529L4.89635 7.57884L4.4798 7.40067Z" fill="#FF6400"/>
<path d="M5.68317 8.24869L5.75167 8.45749L6.07021 8.89019L6.03174 8.72225L5.68317 8.24869Z" fill="#FF9400"/>
<path d="M4.89636 7.57867L5.03257 7.84512L5.40249 8.10591L5.30109 7.86395L4.89636 7.57867Z" fill="#FF6C00"/>
<path d="M5.30103 7.86389L5.40242 8.10585L5.75138 8.45739L5.68288 8.24858L5.30103 7.86389Z" fill="#FF7E00"/>
<path d="M3.76175 16.1698L3.70828 16.0149L3.26398 15.6356L3.28764 15.7649L3.76175 16.1698Z" fill="#000CFF"/>
<path d="M3.28752 15.7649L3.26386 15.6355L2.84987 15.1534L2.84576 15.2505L3.28752 15.7649Z" fill="#0028FF"/>
<path d="M4.25683 16.455L4.1722 16.2821L3.70837 16.0148L3.76184 16.1696L4.25683 16.455Z" fill="#0000FF"/>
<path d="M2.84561 15.2505L2.84972 15.1534L2.47616 14.5802L2.44696 14.6389L2.84561 15.2505Z" fill="#004CFF"/>
<path d="M4.7605 16.6138L4.64405 16.4307L4.172 16.2821L4.25663 16.455L4.7605 16.6138Z" fill="#0000FF"/>
<path d="M2.44708 14.6385L2.47628 14.5798L2.15241 13.9292L2.10138 13.9442L2.44708 14.6385Z" fill="#0074FF"/>
<path d="M5.26092 16.6414L5.11272 16.4563L4.64398 16.4305L4.76044 16.6136L5.26092 16.6414Z" fill="#0000FF"/>
<path d="M2.10137 13.9445L2.1524 13.9295L1.88638 13.2171L1.81732 13.1841L2.10137 13.9445Z" fill="#00A8FF"/>
<path d="M5.74576 16.537L5.56661 16.3581L5.11273 16.4564L5.26094 16.6415L5.74576 16.537Z" fill="#0008FF"/>
<path d="M1.81739 13.1841L1.88645 13.217L1.68518 12.4601L1.60236 12.3759L1.81739 13.1841Z" fill="#00E0FB"/>
<path d="M6.20318 16.3018L5.99463 16.1373L5.56689 16.3579L5.74605 16.5368L6.20318 16.3018Z" fill="#0020FF"/>
<path d="M1.60216 12.376L1.68498 12.4602L1.55392 11.6774L1.46198 11.5399L1.60216 12.376Z" fill="#2CFFCA"/>
<path d="M6.62097 15.9414L6.38531 15.7994L5.99463 16.1377L6.20317 16.3021L6.62097 15.9414Z" fill="#0040FF"/>
<path d="M1.46226 11.5396L1.5542 11.6771L1.49717 10.8877L1.40106 10.6961L1.46226 11.5396Z" fill="#5DFF9A"/>
<path d="M6.98838 15.4625L6.72859 15.3506L6.38507 15.7991L6.62073 15.9411L6.98838 15.4625Z" fill="#0068FF"/>
<path d="M1.40088 10.6964L1.49699 10.888L1.51609 10.1119L1.42096 9.86676L1.40088 10.6964Z" fill="#90FF66"/>
<path d="M7.29607 14.8773L7.01578 14.8025L6.72858 15.3508L6.98837 15.4627L7.29607 14.8773Z" fill="#0098FF"/>
<path d="M1.4209 9.86677L1.51602 10.1119L1.61148 9.36915L1.52255 9.07233L1.4209 9.86677Z" fill="#C1FF36"/>
<path d="M7.53543 14.1989L7.23886 14.1673L7.01587 14.8023L7.29616 14.8771L7.53543 14.1989Z" fill="#00CCFF"/>
<path d="M1.52283 9.07192L1.61175 9.36875L1.78185 8.67876L1.70429 8.3335L1.52283 9.07192Z" fill="#F4F802"/>
<path d="M7.69949 13.4445L7.39139 13.4613L7.23901 14.1674L7.53558 14.199L7.69949 13.4445Z" fill="#1CFFDB"/>
<path d="M1.70404 8.33351L1.7816 8.67878L2.02265 8.06008L1.96143 7.67096L1.70404 8.33351Z" fill="#FFC400"/>
<path d="M7.78299 12.6324L7.4685 12.7018L7.39142 13.4612L7.69952 13.4444L7.78299 12.6324Z" fill="#4DFFAA"/>
<path d="M1.96143 7.67107L2.02264 8.06019L2.329 7.52973L2.28876 7.1026L1.96143 7.67107Z" fill="#FF9800"/>
<path d="M7.78299 11.784L7.46753 11.9085L7.46851 12.7018L7.783 12.6325L7.78299 11.784Z" fill="#80FF77"/>
<path d="M2.28876 7.10266L2.329 7.5298L2.69314 7.1025L2.67804 6.64441L2.28876 7.10266Z" fill="#FF6F00"/>
<path d="M7.69871 10.9212L7.38782 11.102L7.46755 11.9083L7.78302 11.7839L7.69871 10.9212Z" fill="#B4FF43"/>
<path d="M2.67828 6.64424L2.69339 7.10233L3.10607 6.79054L3.11963 6.30945L2.67828 6.64424Z" fill="#FF4A00"/>
<path d="M7.53133 10.0676L7.23053 10.3045L7.38756 11.1022L7.69845 10.9214L7.53133 10.0676Z" fill="#E4FF13"/>
<path d="M3.11976 6.30943L3.1062 6.79052L3.55669 6.60358L3.6017 6.10825L3.11976 6.30943Z" fill="#FF3000"/>
<path d="M7.2854 9.24594L7 9.53695L7.23065 10.3046L7.53145 10.0677L7.2854 9.24594Z" fill="#FFD300"/>
<path d="M3.60135 6.10863L3.55634 6.60397L4.03264 6.5478L4.11103 6.04755L3.60135 6.10863Z" fill="#FF2200"/>
<path d="M6.96671 8.4787L6.70166 8.82034L7.00013 9.53673L7.28553 9.24571L6.96671 8.4787Z" fill="#FFA300"/>
<path d="M4.11117 6.04742L4.03278 6.54768L4.52205 6.62457L4.63481 6.12891L4.11117 6.04742Z" fill="#FF1A00"/>
<path d="M6.58332 7.78787L6.34302 8.17515L6.7015 8.82041L6.96655 8.47877L6.58332 7.78787Z" fill="#FF7A00"/>
<path d="M4.63491 6.12903L4.52216 6.62468L5.01102 6.83308L5.15814 6.35154L4.63491 6.12903Z" fill="#FF1A00"/>
<path d="M6.14592 7.19226L5.93408 7.6188L6.34294 8.17497L6.58324 7.7877L6.14592 7.19226Z" fill="#FF5500"/>
<path d="M5.15823 6.35144L5.01111 6.83298L5.48614 7.1675L5.66661 6.70924L5.15823 6.35144Z" fill="#FF2500"/>
<path d="M5.66637 6.70905L5.4859 7.1673L5.93401 7.61888L6.14585 7.19234L5.66637 6.70905Z" fill="#FF3800"/>
<defs>
<linearGradient id="paint0_linear_4649_168923" x1="0.569458" y1="0.0126038" x2="0.569458" y2="16.701" gradientUnits="userSpaceOnUse">
<stop stop-color="#FF1A00"/>
<stop offset="0.244946" stop-color="#F8F500"/>
<stop offset="0.494291" stop-color="#87FF70"/>
<stop offset="0.747869" stop-color="#00E0FB"/>
<stop offset="1" stop-color="#004CFF"/>
</linearGradient>
</defs>
</svg>
