<svg width="40" height="41" viewBox="0 0 40 41" fill="none" xmlns="http://www.w3.org/2000/svg">
<g clip-path="url(#clip0_4603_42651)">
<path d="M39.5 20.7744C39.5 31.544 30.7696 40.2744 20 40.2744C9.23045 40.2744 0.5 31.544 0.5 20.7744C0.5 10.0049 9.23045 1.27441 20 1.27441C30.7696 1.27441 39.5 10.0049 39.5 20.7744Z" stroke="#4A4D58"/>
<path d="M24.2876 11.2444H22.1113V14.5256H24.2876V11.2444Z" fill="#22262F"/>
<path d="M17.6272 6.8761H15.5933V10.2659H17.6272V6.8761Z" fill="#4A4D58"/>
<path d="M12.2036 9.58795H10.8477V12.9778H12.2036V9.58795Z" fill="#4A4D58"/>
<path d="M9.49167 20.4354H8.13574V28.571H9.49167V20.4354Z" fill="#4A4D58"/>
<path d="M9.49167 12.2999H8.13574V20.4355H9.49167V12.2999Z" fill="#4A4D58"/>
<path d="M27.4101 14.3682H25.2339V17.6494H27.4101V14.3682Z" fill="#22262F"/>
<path d="M25.7629 23.1473H23.729V25.8591H25.7629V23.1473Z" fill="#63717A"/>
<path d="M23.051 25.8591H21.0171V28.571H23.051V25.8591Z" fill="#63717A"/>
<path d="M18.9829 31.2829H16.271V33.9948H18.9829V31.2829Z" fill="#4A4D58"/>
<path d="M12.4619 27.9593H10.2856V31.2405H12.4619V27.9593Z" fill="#4A4D58"/>
<path d="M31.1866 17.724V12.3H28.4738V9.58807H23.0514V6.8761H17.628V9.58807H12.2045V12.3H9.4917V28.5719H12.2034V31.2839H17.6258V33.9947H23.0493V31.2839H28.4738V28.5719H31.1866V23.1479H25.7632V25.8599H23.0514V28.5719H17.628V25.8599H14.9162V15.012H17.628V12.3H23.0514V15.012H25.7632V17.724H31.1866Z" fill="#63717A"/>
</g>
<defs>
<clipPath id="clip0_4603_42651">
<rect width="40" height="40" fill="white" transform="translate(0 0.774414)"/>
</clipPath>
</defs>
</svg>
