<svg width="40" height="41" viewBox="0 0 40 41" fill="none" xmlns="http://www.w3.org/2000/svg">
<g clip-path="url(#clip0_4603_13258)">
<path d="M20 40.7744C31.0457 40.7744 40 31.8201 40 20.7744C40 9.72872 31.0457 0.774414 20 0.774414C8.9543 0.774414 0 9.72872 0 20.7744C0 31.8201 8.9543 40.7744 20 40.7744Z" fill="white"/>
<path d="M31.4851 17.6519V11.4019H28.3601V8.27692H22.1113V5.15192H15.8613V8.27692H9.61133V11.4019H6.48633V30.1507H9.61133V33.2757H15.8613V36.3994H22.1101V33.2757H28.3601V30.1507H31.4851V23.9007H25.2363V27.0257H22.1113V30.1507H15.8613V27.0257H12.7388V14.5269H15.8638V11.4019H22.1126V14.5269H25.2376V17.6519H31.4851Z" fill="url(#paint0_linear_4603_13258)"/>
<path d="M24.2876 11.2444H22.1113V14.5256H24.2876V11.2444Z" fill="#1682FE"/>
<path d="M18.0327 5.14941H15.8564V8.43066H18.0327V5.14941Z" fill="#1682FE"/>
<path d="M11.7851 8.27441H9.60889V11.5557H11.7851V8.27441Z" fill="#60D8A4"/>
<path d="M8.68117 20.7744H6.48242V30.1482H8.68117V20.7744Z" fill="#F4BB3B"/>
<path d="M8.68117 11.4019H6.48242V20.7757H8.68117V11.4019Z" fill="#60D8A4"/>
<path d="M27.4101 14.3682H25.2339V17.6494H27.4101V14.3682Z" fill="#1682FE"/>
<path d="M27.4087 23.8994H25.2324V27.1807H27.4087V23.8994Z" fill="#FF5A5A"/>
<path d="M24.2876 27.0244H22.1113V30.3057H24.2876V27.0244Z" fill="#FF5A5A"/>
<path d="M18.0337 33.1169H15.8574V36.3982H18.0337V33.1169Z" fill="#FF5A5A"/>
<path d="M11.7837 29.9932H9.60742V33.2744H11.7837V29.9932Z" fill="#F4BB3B"/>
<path d="M33.5174 17.6494V11.3994H30.3911V8.27441H24.1424V5.14941H17.8924V8.27441H11.6424V11.3994H8.51611V30.1494H11.6411V33.2744H17.8899V36.3982H24.1399V33.2744H30.3911V30.1494H33.5174V23.8994H27.2674V27.0244H24.1424V30.1494H17.8924V27.0244H14.7674V14.5244H17.8924V11.3994H24.1424V14.5244H27.2674V17.6494H33.5174Z" fill="#3A3A3A"/>
</g>
<defs>
<linearGradient id="paint0_linear_4603_13258" x1="23.8601" y1="8.8709" x2="8.99627" y2="32.0932" gradientUnits="userSpaceOnUse">
<stop stop-color="#1682FE"/>
<stop offset="0.3" stop-color="#60D8A4"/>
<stop offset="0.7" stop-color="#FCA75B"/>
<stop offset="1" stop-color="#FF5A5A"/>
</linearGradient>
<clipPath id="clip0_4603_13258">
<rect width="40" height="40" fill="white" transform="translate(0 0.774414)"/>
</clipPath>
</defs>
</svg>
