<svg width="40" height="40" viewBox="0 0 40 40" fill="none" xmlns="http://www.w3.org/2000/svg">
<path fill-rule="evenodd" clip-rule="evenodd" d="M40 20C40 17.3824 39.4792 14.7648 38.4776 12.3464C37.476 9.928 35.9932 7.7088 34.142 5.858C32.2912 4.0068 30.072 2.524 27.6536 1.5224C25.2352 0.5208 22.6176 0 20 0C17.3824 0 14.7648 0.5208 12.3464 1.5224C9.928 2.524 7.7088 4.0068 5.858 5.858C4.0068 7.7088 2.524 9.928 1.5224 12.3464C0.5208 14.7648 0 17.3824 0 20C0 22.6176 0.5208 25.2352 1.5224 27.6536C2.524 30.072 4.0068 32.2912 5.858 34.142C7.7088 35.9932 9.928 37.476 12.3464 38.4776C14.7648 39.4792 17.3824 40 20 40C22.6176 40 25.2352 39.4792 27.6536 38.4776C30.072 37.476 32.2912 35.9932 34.142 34.142C35.9932 32.2912 37.476 30.072 38.4776 27.6536C39.4792 25.2352 40 22.6176 40 20Z" fill="#F4B731"/>
<path fill-rule="evenodd" clip-rule="evenodd" d="M10.4752 24.3009V31.1445L10.4716 31.1468V31.1595C13.3636 31.1199 16.2556 31.1199 19.1468 31.1595C20.1288 31.173 21.11 31.1104 22.072 30.9243C23.088 30.7274 24.0832 30.428 25.0224 29.9967C25.4287 29.8103 25.8187 29.5852 26.2121 29.358L26.2122 29.358L26.2122 29.3579C26.3153 29.2984 26.4186 29.2388 26.5224 29.1797C26.9888 28.851 27.436 28.4958 27.86 28.1159C29.0228 27.0748 29.9228 25.7765 30.4852 24.3286C30.5232 24.1662 30.6836 24.0617 30.848 24.0934H33.2104C33.3984 24.0934 33.4608 24.0308 33.4608 23.8205V22.3227C33.4736 22.1789 33.4736 22.034 33.4608 21.8902C33.4608 21.8526 33.4705 21.8152 33.4803 21.7778C33.4996 21.7034 33.5189 21.6293 33.4608 21.5552H31.4868C31.2484 21.5552 31.2484 21.5306 31.2484 21.3203C31.3168 20.5662 31.2892 19.8114 31.2484 19.0558C31.236 18.8332 31.2864 18.8332 31.4612 18.8332H33.186C33.3868 18.8332 33.4528 18.7829 33.462 18.5853C33.4932 17.9076 33.4932 17.2312 33.462 16.5552C33.4557 16.4213 33.4525 16.3532 33.4168 16.3186C33.3799 16.2827 33.3081 16.2827 33.162 16.2827H30.9244C30.75 16.312 30.5828 16.1956 30.5508 16.0225C30.2944 15.3587 29.9736 14.7195 29.5744 14.1286C29.1784 13.5425 28.7416 12.9825 28.2372 12.4831C27.5792 11.8324 26.8432 11.2625 26.0376 10.7995C24.8268 10.1041 23.5032 9.61615 22.1248 9.36427C21.4564 9.24189 20.7812 9.1413 20.1 9.1413H10.7256C10.4752 9.1413 10.4752 9.1912 10.4752 9.38922V16.0601C10.4752 16.2954 10.4248 16.2954 10.2376 16.2954H7.5504C7.3504 16.2954 7.3504 16.3314 7.3504 16.468V18.6459C7.3504 18.8439 7.4124 18.8439 7.5628 18.8439H10.2756C10.4752 18.8439 10.4752 18.8803 10.4752 19.0288V21.3556C10.4752 21.5662 10.412 21.5662 10.2504 21.5662H7.3504V23.9175C7.3504 24.1156 7.4124 24.1156 7.5628 24.1156H10.2756C10.4752 24.1156 10.4752 24.1393 10.4752 24.3009ZM28.3368 21.5528H20.7376H13.2868C13.1347 21.5528 13.0599 21.5528 13.0231 21.5154C12.9876 21.4793 12.9876 21.4082 12.9876 21.2684V19.0657C12.9876 18.8918 13.0376 18.8304 13.2244 18.8304H28.3496C28.5128 18.8304 28.5872 18.8918 28.5872 19.0403C28.6492 19.8066 28.63 20.5754 28.5872 21.3425C28.5756 21.5528 28.4992 21.5528 28.3368 21.5528ZM27.7384 16.2558C27.76 16.1995 27.76 16.1385 27.7384 16.0831C27.6116 15.8094 27.4612 15.5484 27.2868 15.3033C27.024 14.8843 26.714 14.4985 26.3616 14.152C26.1952 13.9425 26.0024 13.7548 25.7864 13.5952C24.7044 12.6835 23.418 12.0383 22.036 11.714C21.34 11.5508 20.626 11.4851 19.9108 11.491C17.6736 11.51 15.4364 11.51 13.1988 11.491C13.0112 11.4894 12.9864 11.5651 12.9864 11.7262V16.1195C12.9864 16.3049 12.9864 16.3548 13.224 16.3548H27.6484L27.6484 16.3548C27.6549 16.3535 27.7733 16.3301 27.7988 16.2558H27.7384ZM27.0992 24.1274C27.3116 24.1041 27.526 24.1041 27.7384 24.1274V24.1286C27.8362 24.1774 27.7547 24.3533 27.7493 24.3649L27.7492 24.3651C26.9808 25.8546 25.762 27.0688 24.2616 27.8411H24.1744C23.8856 28.0114 23.576 28.1433 23.2628 28.2617C22.3916 28.5908 21.478 28.7904 20.5488 28.8561C20.2492 28.9191 19.9432 28.9405 19.6372 28.9179H13.2372C12.9876 28.9179 12.9876 28.8676 12.9876 28.67V24.3746C12.9876 24.1274 13.0504 24.1274 13.2372 24.1274H27.0992Z" fill="white"/>
</svg>
