<svg width="40" height="41" viewBox="0 0 40 41" fill="none" xmlns="http://www.w3.org/2000/svg">
<path fill-rule="evenodd" clip-rule="evenodd" d="M40 20.7744C40 9.73881 31.0356 0.774414 20 0.774414C8.9644 0.774414 0 9.73881 0 20.7744C0 31.81 8.9644 40.7744 20 40.7744C31.0356 40.7744 40 31.81 40 20.7744Z" fill="white"/>
<path fill-rule="evenodd" clip-rule="evenodd" d="M10.6467 33.2744L14.2729 29.6482C17.7592 31.8983 22.2408 31.8983 25.7271 29.6482L29.3533 33.2744L32.5 30.1277L28.8738 26.5015C31.1239 23.0152 31.1239 18.5337 28.8738 15.0473L32.5 11.4211L29.3533 8.27441L25.7271 11.9006C22.2408 9.65049 17.7592 9.65049 14.2729 11.9006L10.6467 8.27441L7.5 11.4211L11.1262 15.0473C8.87608 18.5337 8.87608 23.0152 11.1262 26.5015L7.5 30.1277L10.6467 33.2744ZM20 14.3875C23.5241 14.3875 26.3869 17.2503 26.3869 20.7744C26.3869 24.2985 23.5241 27.1613 20 27.1613C16.4759 27.1613 13.6131 24.2985 13.6131 20.7744C13.6131 17.2503 16.4759 14.3875 20 14.3875Z" fill="black"/>
</svg>
