<svg width="35" height="35" viewBox="0 0 17 17" fill="none" xmlns="http://www.w3.org/2000/svg">
<g clip-path="url(#clip0_4649_59745)">
<path d="M16.5 8.38028C16.5 12.7258 12.925 16.2606 8.5 16.2606C4.07501 16.2606 0.5 12.7258 0.5 8.38028C0.5 4.03478 4.07501 0.5 8.5 0.5C12.925 0.5 16.5 4.03478 16.5 8.38028Z" stroke="#4A4D58"/>
<path d="M10.3222 4.38708H9.39728V5.76197H10.3222V4.38708Z" fill="#22262F"/>
<path d="M7.49154 2.55664H6.62714V3.97703H7.49154V2.55664Z" fill="#4A4D58"/>
<path d="M5.18644 3.69299H4.61017V5.11338H5.18644V3.69299Z" fill="#4A4D58"/>
<path d="M4.03391 8.23828H3.45764V11.6472H4.03391V8.23828Z" fill="#4A4D58"/>
<path d="M4.03391 4.82935H3.45764V8.23827H4.03391V4.82935Z" fill="#4A4D58"/>
<path d="M11.6493 5.69592H10.7244V7.07081H11.6493V5.69592Z" fill="#22262F"/>
<path d="M10.9491 9.37451H10.0847V10.5108H10.9491V9.37451Z" fill="#63717A"/>
<path d="M9.7966 10.5109H8.93219V11.6472H9.7966V10.5109Z" fill="#63717A"/>
<path d="M8.06783 12.7834H6.91528V13.9198H8.06783V12.7834Z" fill="#4A4D58"/>
<path d="M5.29624 11.3909H4.37134V12.7658H5.29624V11.3909Z" fill="#4A4D58"/>
<path d="M13.2542 7.10206V4.82935H12.1013V3.693H9.79676V2.55664H7.49179V3.693H5.18682V4.82935H4.03387V11.6475H5.18636V12.7838H7.49087V13.9197H9.79584V12.7838H12.1013V11.6475H13.2542V9.37477H10.9492V10.5111H9.79676V11.6475H7.49179V10.5111H6.33931V5.96571H7.49179V4.82935H9.79676V5.96571H10.9492V7.10206H13.2542Z" fill="#63717A"/>
</g>
<defs>
<clipPath id="clip0_4649_59745">
<rect width="17" height="16.7606" fill="white"/>
</clipPath>
</defs>
</svg>
