<svg width="40" height="41" viewBox="0 0 40 41" fill="none" xmlns="http://www.w3.org/2000/svg">
<path d="M34.7049 14.3789C27.407 16.4017 23.1035 23.9773 25.1065 31.2752L22.231 32.0685L25.1065 31.2752C25.8998 34.131 27.5458 36.5306 29.6876 38.2757C35.8353 34.8647 39.9999 28.3005 39.9999 20.7844C39.9999 18.365 39.5636 16.0447 38.7902 13.9029C37.4218 13.8434 36.0535 14.0021 34.7049 14.3789Z" fill="#111316"/>
<path d="M19.3752 32.8419C16.4798 22.3907 22.6474 11.5231 33.1184 8.62774C33.9116 8.40959 34.7049 8.25094 35.4982 8.13195C32.5433 4.52263 28.3588 1.96438 23.5795 1.0918C23.9166 2.48 24.0753 3.90786 24.0753 5.37538C24.0753 10.2737 22.1714 14.8945 18.7009 18.365C15.1115 21.9545 10.4114 23.7393 5.71136 23.7393C3.82737 23.7393 1.92356 23.4418 0.118896 22.8667C1.16996 32.9212 9.67764 40.7745 20.0098 40.7745C21.1799 40.7745 22.3301 40.6753 23.4605 40.477C21.5963 38.3352 20.1685 35.7571 19.3752 32.8419Z" fill="#111316"/>
<path d="M14.4968 14.1606C16.8369 11.8205 18.1259 8.68714 18.1259 5.37529C18.1259 3.84827 17.8483 2.34108 17.3128 0.952881C8.9043 2.08327 2.16161 8.42933 0.436279 16.6197C5.03717 18.7813 10.6891 17.9484 14.4968 14.1606Z" fill="#111316"/>
<path d="M18.701 18.3649C22.1715 14.8944 24.0754 10.2737 24.0754 5.3753C24.0754 3.90778 23.8969 2.47992 23.5796 1.09172C22.4095 0.893403 21.2196 0.774414 19.9901 0.774414C19.0778 0.774414 18.1854 0.833908 17.3128 0.952897C17.8483 2.3411 18.1259 3.84828 18.1259 5.3753C18.1259 8.68715 16.8369 11.8007 14.4968 14.1606C10.6891 17.9484 5.03718 18.7813 0.436291 16.6197C0.158651 17.9484 0 19.3366 0 20.7645C0 21.4784 0.0396628 22.1725 0.0991571 22.8666C1.92365 23.4417 3.80763 23.7392 5.69162 23.7392C10.4115 23.7392 15.1115 21.9544 18.701 18.3649Z" fill="url(#paint0_linear_4649_110092)"/>
<path d="M19.3751 32.8418C20.1684 35.7571 21.5963 38.3153 23.4406 40.4571C25.6617 40.0605 27.7638 39.3069 29.6875 38.2558C27.5457 36.5107 25.8997 34.1111 25.1064 31.2553L22.2309 32.0486L25.1064 31.2553C23.0836 23.9574 27.4069 16.3818 34.7048 14.359C36.0732 13.9822 37.4416 13.8235 38.7703 13.8632C37.9968 11.761 36.8863 9.81756 35.4981 8.11206C34.7048 8.23105 33.9116 8.3897 33.1183 8.60785C22.6473 11.5231 16.4797 22.3907 19.3751 32.8418Z" fill="url(#paint1_linear_4649_110092)"/>
<defs>
<linearGradient id="paint0_linear_4649_110092" x1="12.0377" y1="0.774414" x2="12.0377" y2="23.7392" gradientUnits="userSpaceOnUse">
<stop stop-color="#00FFF0"/>
<stop offset="1" stop-color="#00FF66"/>
</linearGradient>
<linearGradient id="paint1_linear_4649_110092" x1="28.7155" y1="8.11206" x2="28.7155" y2="40.4571" gradientUnits="userSpaceOnUse">
<stop stop-color="#00FFF0"/>
<stop offset="1" stop-color="#00FF66"/>
</linearGradient>
</defs>
</svg>
