<svg width="40" height="41" viewBox="0 0 40 41" fill="none" xmlns="http://www.w3.org/2000/svg">
<path d="M19.9901 40.7744C31.0303 40.7744 39.9802 31.8201 39.9802 20.7744C39.9802 9.72872 31.0303 0.774414 19.9901 0.774414C8.94987 0.774414 0 9.72872 0 20.7744C0 31.8201 8.94987 40.7744 19.9901 40.7744Z" fill="#111316"/>
<path d="M21.1406 19.8177L21.1605 19.8372V19.8177H21.1406Z" fill="#AA3C3C"/>
<path d="M20.7912 18.9122L32.9032 6.53119C31.3777 4.95303 29.5949 3.65669 27.61 2.71731L20.7729 9.70628L13.3844 2.15369C11.2891 2.96155 9.39608 4.12638 7.74194 5.6106L20.7545 18.9122H20.7912Z" fill="#B098F7"/>
<path d="M30.0636 24.91L39.962 22.2594C39.981 21.9258 40 21.5736 40 21.2399C40 19.3493 39.7145 17.5329 39.1625 15.8091L21.9546 20.4244L21.9355 20.4429L27.1322 38.7744C29.3212 38.0515 31.3199 36.9394 33.0712 35.5493L30.0636 24.91Z" fill="#B098F7"/>
<path d="M0.885635 15.1884C0.313662 17.0199 0 18.9648 0 20.9662C0 21.2117 0 21.4761 0.0184507 21.7215L11.5502 24.8182L8.46888 36.846C10.2586 38.0356 12.2882 38.9041 14.4285 39.3951L19.3548 20.1543L0.885635 15.1884Z" fill="#B098F7"/>
</svg>
