<svg width="40" height="41" viewBox="0 0 40 41" fill="none" xmlns="http://www.w3.org/2000/svg">
<path d="M21.993 36.5128C23.2622 37.7814 24.6107 38.8715 26.0386 39.823C26.0782 39.8032 26.1179 39.8032 26.1576 39.7833C16.341 29.04 16.341 12.489 26.1576 1.74567C24.3132 1.15102 22.3499 0.814057 20.3073 0.774414C16.3608 5.55142 14.1992 11.4781 14.1992 17.7417C14.1992 24.8378 16.9756 31.4979 21.993 36.5128Z" fill="#22262F"/>
<path d="M31.2543 36.5129C31.413 36.6715 31.5716 36.8102 31.7303 36.9688C31.7898 36.9292 31.8691 36.8697 31.9286 36.8301C25.2454 29.6348 25.4041 18.3563 32.4046 11.3593C33.4755 10.2889 34.6455 9.37715 35.8949 8.62393C34.705 7.07784 33.3168 5.72998 31.7501 4.58032C31.5915 4.71907 31.4328 4.87765 31.2742 5.03622C22.5682 13.7181 22.5682 27.8311 31.2543 36.5129Z" fill="#111316"/>
<path d="M32.9597 24.3424C32.9597 27.4147 34.0703 30.3285 36.1129 32.608C38.5522 29.2978 39.9999 25.1947 39.9999 20.7745C39.9999 18.3364 39.5636 15.9975 38.7703 13.8369C37.9969 14.3325 37.2631 14.9073 36.6087 15.5614C34.2488 17.9202 32.9597 21.0322 32.9597 24.3424Z" fill="#111316"/>
<path d="M12.0972 2.41956C4.97769 5.47208 0 12.5484 0 20.7744C0 31.042 7.73426 39.486 17.6896 40.6356C7.41696 30.2689 5.5528 14.6693 12.0972 2.41956Z" fill="#111316"/>
<path d="M31.9086 36.8299C33.515 35.6406 34.923 34.2135 36.1129 32.6079C34.0702 30.3284 32.9597 27.4147 32.9597 24.3423C32.9597 21.0321 34.2487 17.9201 36.5888 15.5613C37.2433 14.9072 37.977 14.3324 38.7505 13.8369C38.0564 11.9538 37.0648 10.1897 35.8749 8.62378C34.6255 9.377 33.4555 10.2888 32.3846 11.3592C25.3841 18.3562 25.2254 29.6347 31.9086 36.8299Z" fill="url(#paint0_linear_4649_110657)"/>
<path d="M26.1576 39.8032C28.1606 39.1491 30.0445 38.1977 31.7104 36.9687C31.5517 36.83 31.3931 36.6714 31.2344 36.5128C22.5483 27.831 22.5483 13.718 31.2344 5.03611C31.3931 4.87754 31.5517 4.73879 31.7104 4.58022C30.0247 3.3711 28.1606 2.39984 26.1576 1.74573C16.341 12.5089 16.341 29.0599 26.1576 39.8032Z" fill="url(#paint1_linear_4649_110657)"/>
<path d="M17.6897 40.6356C18.4433 40.7149 19.2167 40.7744 19.9901 40.7744C22.0923 40.7744 24.1151 40.4572 26.0387 39.8427C24.6109 38.8913 23.2623 37.7813 21.9931 36.5325C16.9758 31.5177 14.2192 24.8378 14.2192 17.7615C14.1994 11.478 16.361 5.55137 20.3074 0.794189C20.2083 0.794189 20.0893 0.794189 19.9901 0.794189C17.1939 0.794189 14.5167 1.36902 12.0972 2.41956C5.55285 14.6693 7.417 30.2689 17.6897 40.6356Z" fill="url(#paint2_linear_4649_110657)"/>
<defs>
<linearGradient id="paint0_linear_4649_110657" x1="32.8815" y1="8.62378" x2="32.8815" y2="36.8299" gradientUnits="userSpaceOnUse">
<stop offset="0.109375" stop-color="#00D395"/>
<stop offset="1" stop-color="#00A0D3"/>
</linearGradient>
<linearGradient id="paint1_linear_4649_110657" x1="25.2528" y1="1.74573" x2="25.2528" y2="39.8032" gradientUnits="userSpaceOnUse">
<stop offset="0.109375" stop-color="#00D395"/>
<stop offset="1" stop-color="#00A0D3"/>
</linearGradient>
<linearGradient id="paint2_linear_4649_110657" x1="17.1579" y1="0.794189" x2="17.1579" y2="40.7744" gradientUnits="userSpaceOnUse">
<stop offset="0.109375" stop-color="#00D395"/>
<stop offset="1" stop-color="#00A0D3"/>
</linearGradient>
</defs>
</svg>
